<?xml version="1.0" standalone="no"?>
<!DOCTYPE svg PUBLIC "-//W3C//DTD SVG 1.1//EN" "http://www.w3.org/Graphics/SVG/1.1/DTD/svg11.dtd" >
<svg xmlns="http://www.w3.org/2000/svg" xmlns:xlink="http://www.w3.org/1999/xlink" version="1.1">
<metadata>
Created by FontForge 20170731 at Thu Mar 11 02:39:20 2021
 By Aleksey,,,
Copyright 2021 The Zen-Loop Project Authors (https://github.com/googlefonts/zen-loop)
</metadata>
<defs>
<font id="ZenLoop-Italic" horiz-adv-x="0" >
  <font-face 
    font-family="Zen Loop"
    font-weight="400"
    font-style="italic"
    font-stretch="normal"
    units-per-em="1000"
    panose-1="0 0 0 0 0 0 0 0 0 0"
    ascent="800"
    descent="-200"
    x-height="477"
    cap-height="690"
    bbox="-195 -265 773 835"
    underline-thickness="20"
    underline-position="-163"
    slope="-15"
    unicode-range="U+000D-2215"
  />
<missing-glyph horiz-adv-x="500" 
d="M50 -187v900h400v-900h-400zM100 -137h300v800h-300v-800z" />
    <glyph glyph-name=".notdef" horiz-adv-x="500" 
d="M50 -187v900h400v-900h-400zM100 -137h300v800h-300v-800z" />
    <glyph glyph-name=".null" 
 />
    <glyph glyph-name="nonmarkingreturn" horiz-adv-x="333" 
 />
    <glyph glyph-name="CR" unicode="&#xd;" horiz-adv-x="600" 
 />
    <glyph glyph-name="space" unicode=" " horiz-adv-x="240" 
 />
    <glyph glyph-name="exclam" unicode="!" horiz-adv-x="143" 
d="M59 183q-4 0 -7.5 3t-2.5 9l131 485q3 10 11 10q5 0 8.5 -3t1.5 -9l-131 -485q-3 -10 -11 -10zM9 0q-4 0 -7.5 3t-2.5 9l22 79q3 10 11 10q5 0 8.5 -3t1.5 -9l-22 -79q-3 -10 -11 -10z" />
    <glyph glyph-name="quotedbl" unicode="&#x22;" horiz-adv-x="196" 
d="M134 501q-4 0 -7.5 3t-2.5 9l45 167q3 10 11 10q5 0 8.5 -3t1.5 -9l-45 -167q-3 -10 -11 -10zM208 501q-4 0 -7.5 3t-2.5 9l45 167q3 10 11 10q5 0 8.5 -3t1.5 -9l-45 -167q-3 -10 -11 -10z" />
    <glyph glyph-name="numbersign" unicode="#" horiz-adv-x="432" 
d="M40 0q-4 0 -7.5 3.5t-1.5 8.5l71 200h-77q-9 0 -9 9q0 12 12 12h81l79 223h-77q-9 0 -9 9q0 12 12 12h81l72 203q3 10 11 10q5 0 8.5 -3t1.5 -9l-71 -201h148l72 203q3 10 11 10q5 0 8.5 -3t1.5 -9l-71 -201h77q9 0 9 -9q0 -12 -12 -12h-81l-79 -223h77q9 0 9 -9
q0 -12 -12 -12h-82l-71 -202q-3 -10 -12 -10q-4 0 -7.5 3.5t-1.5 8.5l71 200h-149l-71 -202q-3 -10 -12 -10zM131 233h148l79 223h-148z" />
    <glyph glyph-name="dollar" unicode="$" horiz-adv-x="373" 
d="M90 -93q-4 0 -7.5 3t-2.5 9l28 102q-54 7 -84 41.5t-30 89.5q0 20 11 20q10 0 10 -11q0 -110 98 -119l83 310q-38 38 -63 71.5t-25 86.5q0 47 23 84t63 59t89 22l25 92q3 10 11 10q5 0 8.5 -3t1.5 -9l-24 -91q42 -5 68.5 -29t28.5 -66q0 -12 -11 -12q-9 0 -10 10
q-2 33 -23 53t-59 23l-79 -295l16 -16q38 -38 60.5 -70t22.5 -82t-25 -88.5t-67.5 -60t-96.5 -21.5h-1l-28 -103q-3 -10 -11 -10zM130 511q0 -44 20 -73.5t53 -62.5l75 279q-43 -2 -76 -21t-52.5 -50.5t-19.5 -71.5zM218 330l-5 5l-79 -294q73 1 118 41.5t45 107.5
q0 46 -22 75.5t-57 64.5z" />
    <glyph glyph-name="percent" unicode="%" horiz-adv-x="469" 
d="M170 368q-29 0 -45.5 21.5t-16.5 63.5q0 38 11 80t31 78.5t47.5 60t60.5 23.5q63 0 63 -83q0 -38 -11 -80.5t-31 -79.5t-47.5 -60.5t-61.5 -23.5zM32 0q-5 0 -8 4t1 11l455 665q3 5 6 7.5t8 2.5t8.5 -4t-1.5 -11l-455 -665q-7 -10 -14 -10zM172 389q27 0 50.5 21t40.5 55
t27 72.5t10 72.5q0 30 -10.5 47t-33.5 17q-27 0 -50 -21t-40 -54.5t-27 -72t-10 -73.5q0 -30 10.5 -47t32.5 -17zM267 -5q-29 0 -45.5 21.5t-16.5 63.5q0 38 11 80t31 78.5t47.5 60t60.5 23.5q63 0 63 -83q0 -38 -11 -80.5t-31 -79.5t-47.5 -60.5t-61.5 -23.5zM269 16
q27 0 50.5 21t40.5 55t27 72.5t10 72.5q0 30 -10.5 47t-33.5 17q-27 0 -50 -21t-40 -54.5t-27 -72t-10 -73.5q0 -30 10.5 -47t32.5 -17z" />
    <glyph glyph-name="ampersand" unicode="&#x26;" horiz-adv-x="526" 
d="M117 -5q-52 0 -78 34t-26 82q0 46 19.5 86t50 73.5t65.5 60.5t66 46v18q0 86 18.5 154t50.5 107t72 39q25 0 42 -18.5t17 -58.5q0 -50 -26 -97.5t-65.5 -86.5t-81.5 -65q-3 -2 -5 -3q2 -60 13.5 -117t32.5 -104q16 27 34 63q19 38 38 70t41 51.5t50 19.5q22 0 34 -13
t12 -34q0 -17 -11 -17q-10 0 -10 13q0 30 -27 30q-22 0 -40.5 -18t-35 -47t-32.5 -62q-11 -21 -21.5 -40.5t-21.5 -37.5q24 -47 57 -75t75 -28q10 0 10 -9q0 -11 -14 -11q-45 0 -80 28t-61 75q-35 -51 -74.5 -79.5t-87.5 -28.5zM235 399v-10q43 27 78.5 64t57 78.5
t21.5 83.5q0 28 -9.5 43.5t-29.5 15.5q-33 0 -59.5 -37t-42.5 -99t-16 -139zM35 113q0 -41 19.5 -69t65.5 -28q42 0 78 27t70 81q-23 48 -36 107.5t-17 121.5q-40 -26 -82 -61.5t-70 -80t-28 -98.5z" />
    <glyph glyph-name="quotesingle" unicode="'" horiz-adv-x="122" 
d="M134 501q-4 0 -7.5 3t-2.5 9l45 167q3 10 11 10q5 0 8.5 -3t1.5 -9l-45 -167q-3 -10 -11 -10z" />
    <glyph glyph-name="parenleft" unicode="(" horiz-adv-x="234" 
d="M113 -64q-8 0 -10 6q-15 42 -23.5 98t-8.5 111q0 88 22 173t58 162.5t79.5 142.5t87.5 114q5 5 10 5q8 0 9.5 -7t-3.5 -12q-41 -46 -83.5 -108.5t-78.5 -137.5t-58 -159t-22 -173q0 -47 7 -101t23 -98q2 -5 0 -10.5t-9 -5.5z" />
    <glyph glyph-name="parenright" unicode=")" horiz-adv-x="234" 
d="M176 748q8 0 10 -6q15 -42 23.5 -98t8.5 -111q0 -88 -22 -173t-58 -162.5t-79.5 -142.5t-87.5 -114q-5 -5 -10 -5q-8 0 -9.5 7t3.5 12q41 46 83.5 108.5t78.5 137.5t58 159t22 173q0 47 -7 101t-23 98q-2 5 0 10.5t9 5.5z" />
    <glyph glyph-name="asterisk" unicode="*" horiz-adv-x="314" 
d="M154 466q-6 0 -9 5.5t4 12.5l78 77l-82 29q-8 3 -8 10q0 8 5.5 9.5t12.5 -0.5l84 -31l25 101q3 11 12 11q12 0 9 -11l-25 -100l95 31q16 5 16 -7q0 -8 -12 -13l-98 -32l35 -74q3 -6 1.5 -12t-9.5 -6q-6 0 -9 6l-36 77l-78 -78q-5 -5 -11 -5z" />
    <glyph glyph-name="plus" unicode="+" horiz-adv-x="578" 
d="M227 0q-4 0 -7.5 3t-2.5 9l58 216h-216q-9 0 -9 9q0 12 12 12h219l59 218q3 10 11 10q5 0 8.5 -3t1.5 -9l-58 -216h216q9 0 9 -9q0 -12 -12 -12h-219l-59 -218q-3 -10 -11 -10z" />
    <glyph glyph-name="comma" unicode="," horiz-adv-x="146" 
d="M37 104q4 0 7.5 -3t2.5 -9l-27 -97q-8 -26 -23 -46.5t-36 -29.5q-12 -5 -17 -5q-8 0 -8 9q0 3 2 7t10 6q16 5 31 22t20 37l27 99q3 10 11 10z" />
    <glyph glyph-name="hyphen" unicode="-" horiz-adv-x="287" 
d="M63 279q-9 0 -9 9q0 12 12 12h186q9 0 9 -9q0 -12 -12 -12h-186z" />
    <glyph glyph-name="period" unicode="." horiz-adv-x="182" 
d="M29 0q-4 0 -7.5 3t-2.5 9l22 79q3 10 11 10q5 0 8.5 -3t1.5 -9l-22 -79q-3 -10 -11 -10z" />
    <glyph glyph-name="slash" unicode="/" horiz-adv-x="270" 
d="M-63 -65q-5 0 -9 3.5t0 10.5l449 792q4 8 12 8q5 0 9 -3.5t0 -10.5l-449 -792q-4 -8 -12 -8z" />
    <glyph glyph-name="zero" unicode="0" horiz-adv-x="388" 
d="M127 -5q-39 0 -62.5 38.5t-23.5 119.5q0 67 16 142t43.5 146t63 128.5t75 91.5t79.5 34t63.5 -39t23.5 -119q0 -67 -16 -142t-43.5 -146t-63 -128.5t-75.5 -91.5t-80 -34zM130 16q34 0 69.5 32.5t68 87t58.5 122.5t41.5 140.5t15.5 138.5t-17 101.5t-49 35.5
q-34 0 -69.5 -32.5t-68.5 -87t-59 -122.5t-41 -140t-15 -139q0 -64 16.5 -100.5t49.5 -36.5z" />
    <glyph glyph-name="one" unicode="1" horiz-adv-x="304" 
d="M-27 0q-9 0 -9 9q0 12 12 12h111l174 644l-107 -40q-7 -2 -10.5 1.5t-3.5 7.5q0 8 8 11l111 40q15 5 19 5q11 0 8 -12l-177 -657h110q9 0 9 -9q0 -12 -12 -12h-243z" />
    <glyph glyph-name="two" unicode="2" horiz-adv-x="345" 
d="M-31 0q-9 0 -9 8q0 25 25 69t72 97.5t114 103.5l41 31q56 42 88.5 89.5t46.5 93t14 81.5q0 41 -12 62.5t-31.5 30t-41.5 8.5q-42 0 -72.5 -23t-51.5 -62q-4 -6 -10 -6q-5 0 -9 5t-1 10q24 43 60.5 70t83.5 27q42 0 74 -26.5t32 -94.5q0 -39 -14 -86t-47 -95.5t-90 -93.5
l-47 -37q-68 -54 -124.5 -117t-77.5 -124h268q9 0 9 -9q0 -12 -12 -12h-278z" />
    <glyph glyph-name="three" unicode="3" horiz-adv-x="387" 
d="M112 -5q-44 0 -79 19t-47 50q-2 5 1 10.5t10 5.5t11 -8q12 -25 39.5 -40.5t64.5 -15.5q58 0 105 32.5t74.5 87.5t27.5 123q0 74 -41 110q-28 -20 -58.5 -31t-61.5 -11q-42 0 -42 27q0 22 26 41t65 19q40 0 70 -19q42 33 69.5 83.5t27.5 105.5q0 37 -15 63.5t-56 26.5
q-37 0 -67 -24t-53 -59q-4 -7 -12 -7q-4 0 -7.5 4t-0.5 9q26 43 61 70.5t80 27.5q49 0 70.5 -33.5t21.5 -77.5q0 -59 -28.5 -112.5t-72.5 -90.5q46 -43 46 -123q0 -73 -30.5 -132.5t-82.5 -95t-116 -35.5zM138 355q0 -7 19 -7q26 0 52 9t50 24q-23 12 -54 12
q-28 0 -47.5 -12.5t-19.5 -25.5z" />
    <glyph glyph-name="four" unicode="4" horiz-adv-x="384" 
d="M26 181q-9 0 -9 9q0 5 6 12l343 482q5 6 10 6q7 0 9.5 -5.5t-2.5 -13.5l-334 -469h194l72 265q3 10 11 10q5 0 8.5 -3t1.5 -9l-71 -263h67q9 0 9 -9q0 -12 -12 -12h-70l-46 -171q-3 -10 -11 -10q-4 0 -7.5 3t-2.5 9l46 169h-212z" />
    <glyph glyph-name="five" unicode="5" horiz-adv-x="378" 
d="M111 -5q-44 0 -78 19t-46 50q-2 5 0 10.5t10 5.5q5 0 7 -2.5t3 -5.5q12 -25 39.5 -40.5t64.5 -15.5q57 0 104 35.5t74.5 93t27.5 123.5q0 61 -27.5 93t-78.5 32q-22 0 -43 -6l-2 -6q-16 -59 -38 -89t-47 -30q-27 0 -27 29q0 31 27 62.5t69 48.5l74 278q3 10 13 10h139
q14 0 31.5 5t33.5 29q4 6 9 6q6 0 8.5 -4.5t-2.5 -11.5q-29 -45 -88 -45h-125l-69 -260q20 5 40 5q58 0 92 -39t34 -107q0 -55 -17.5 -104.5t-49 -87.5t-73 -59.5t-89.5 -21.5zM76 297q0 -13 9 -13q13 0 29.5 24t28.5 70q-30 -14 -48.5 -36.5t-18.5 -44.5z" />
    <glyph glyph-name="six" unicode="6" horiz-adv-x="374" 
d="M135 -5q-52 0 -78.5 41t-26.5 99q0 77 24.5 154t68.5 149.5t103 135.5t129 112q5 4 10 4q9 0 9 -9q0 -5 -2.5 -8t-5.5 -5q-65 -42 -122 -102.5t-100 -132t-67.5 -147.5t-24.5 -151q0 -52 22.5 -85.5t66.5 -33.5q34 0 66 21t57 56.5t39.5 78.5t14.5 87q0 41 -16.5 71
t-57.5 30q-25 0 -52.5 -13.5t-50.5 -36.5q-4 -4 -9 -4q-7 0 -9 6t2 11q58 58 120 58q50 0 72.5 -35t22.5 -85t-17 -97.5t-45.5 -85.5t-65.5 -60.5t-77 -22.5z" />
    <glyph glyph-name="seven" unicode="7" horiz-adv-x="322" 
d="M-9 0q-5 0 -7.5 4t0.5 9l391 656h-223q-9 0 -9 9q0 12 12 12h242q5 0 7.5 -4t-1.5 -10l-398 -668q-5 -8 -14 -8z" />
    <glyph glyph-name="eight" unicode="8" horiz-adv-x="388" 
d="M140 -5q-56 0 -89.5 36.5t-33.5 93.5q0 68 47.5 133t143.5 108q-36 31 -56 71t-20 82q0 49 23 88.5t61.5 63.5t84.5 24q57 0 87 -35.5t30 -85.5q0 -65 -46.5 -119.5t-126.5 -92.5q42 -37 63 -80t21 -88q0 -54 -26.5 -99t-69.5 -72.5t-93 -27.5zM154 519q0 -74 75 -143
q80 39 123.5 90t43.5 109q0 44 -24 71.5t-71 27.5q-41 0 -74.5 -21.5t-53 -56.5t-19.5 -77zM140 16q44 0 82 24.5t61.5 65t23.5 88.5q0 42 -20.5 83t-62.5 76q-94 -44 -139.5 -104t-45.5 -123q0 -50 27 -80t74 -30z" />
    <glyph glyph-name="nine" unicode="9" horiz-adv-x="373" 
d="M296 695q52 0 78.5 -41t26.5 -99q0 -77 -24.5 -154t-68.5 -149.5t-103 -135.5t-129 -112q-5 -4 -10 -4q-9 0 -9 9q0 5 2.5 8t5.5 5q65 42 122 102.5t100 132t67.5 147.5t24.5 151q0 52 -22.5 85.5t-66.5 33.5q-34 0 -66 -21t-57 -56.5t-39.5 -78.5t-14.5 -87
q0 -41 16.5 -71t57.5 -30q25 0 52.5 13.5t50.5 36.5q4 4 9 4q7 0 9 -6t-2 -11q-58 -58 -120 -58q-50 0 -72.5 35t-22.5 85t17 97.5t45.5 85.5t65.5 60.5t77 22.5z" />
    <glyph glyph-name="colon" unicode=":" horiz-adv-x="183" 
d="M29 0q-4 0 -7.5 3t-2.5 9l22 79q3 10 11 10q5 0 8.5 -3t1.5 -9l-22 -79q-3 -10 -11 -10zM131 376q-4 0 -7.5 3t-2.5 9l22 79q3 10 11 10q5 0 8.5 -3t1.5 -9l-22 -79q-3 -10 -11 -10z" />
    <glyph glyph-name="semicolon" unicode=";" horiz-adv-x="166" 
d="M114 376q-4 0 -7.5 3t-2.5 9l22 79q3 10 11 10q5 0 8.5 -3t1.5 -9l-22 -79q-3 -10 -11 -10zM37 104q4 0 7.5 -3t2.5 -9l-27 -97q-8 -26 -23 -46.5t-36 -29.5q-12 -5 -17 -5q-8 0 -8 9q0 3 2 7t10 6q16 5 31 22t20 37l27 99q3 10 11 10z" />
    <glyph glyph-name="less" unicode="&#x3c;" horiz-adv-x="483" 
d="M363 49l-307 179q-6 4 -6 9q0 7 9 11l410 183q6 2 9.5 -0.5t3.5 -7.5q0 -9 -10 -13l-391 -174l298 -172q4 -3 4 -7q0 -6 -6 -9.5t-14 1.5z" />
    <glyph glyph-name="equal" unicode="=" horiz-adv-x="579" 
d="M80 307q-9 0 -9 9q0 12 12 12h457q9 0 9 -9q0 -12 -12 -12h-457zM39 150q-9 0 -9 9q0 12 12 12h457q9 0 9 -9q0 -12 -12 -12h-457z" />
    <glyph glyph-name="greater" unicode="&#x3e;" horiz-adv-x="483" 
d="M120 429l307 -179q6 -4 6 -9q0 -7 -9 -11l-410 -183q-6 -2 -9.5 0.5t-3.5 7.5q0 9 10 13l391 174l-298 172q-4 3 -4 7q0 6 6 9.5t14 -1.5z" />
    <glyph glyph-name="question" unicode="?" horiz-adv-x="304" 
d="M127 188q-7 0 -11 7q-7 14 -10 28t-3 27q0 26 12 50t28.5 45t30.5 34l51 49q57 55 75.5 99t18.5 75q0 34 -16.5 53t-50.5 19t-59 -18.5t-42 -47.5q-3 -7 -11 -7q-7 0 -9.5 4.5t0.5 9.5q20 35 52 57.5t72 22.5q41 0 63.5 -24.5t22.5 -65.5q0 -33 -19.5 -81.5t-77.5 -104.5
l-55 -53q-10 -10 -25.5 -28t-27.5 -40.5t-12 -46.5q0 -21 11 -46q3 -6 1.5 -11.5t-9.5 -5.5zM73 0q-4 0 -7.5 3t-2.5 9l22 79q3 10 11 10q5 0 8.5 -3t1.5 -9l-22 -79q-3 -10 -11 -10z" />
    <glyph glyph-name="at" unicode="@" horiz-adv-x="755" 
d="M369 0q-90 0 -158 33.5t-106 96.5t-38 153q0 84 30.5 157.5t84 129.5t124 88t150.5 32q88 0 155 -30.5t105 -88t38 -140.5q0 -63 -20.5 -119.5t-57 -100.5t-83.5 -69t-100 -25q-70 0 -100 48q-22 -24 -44.5 -38.5t-42.5 -14.5q-26 0 -40.5 24t-14.5 67q0 48 13.5 102.5
t36.5 107t51 95.5t57.5 68.5t55.5 25.5q34 0 47.5 -41t-0.5 -109q-2 -8 -11 -8q-12 0 -10 13q11 56 3.5 90t-31.5 34q-22 0 -47.5 -25.5t-51 -67t-46.5 -92t-33.5 -101t-12.5 -93.5q0 -69 36 -69q16 0 36 14.5t40 37.5q-8 22 -8 50q0 38 11 72t29 56t37 22q28 0 28 -39
q0 -36 -21.5 -81.5t-51.5 -82.5q21 -44 87 -44q48 0 90.5 23t75.5 63.5t52 92.5t19 109q0 80 -35 134t-97 81.5t-144 27.5q-77 0 -143.5 -30t-117 -82.5t-78.5 -121.5t-28 -148q0 -85 36 -144.5t100 -90.5t148 -31q68 0 133 21t118 62q3 3 8 3q7 0 9 -6.5t-6 -12.5
q-57 -43 -126 -65.5t-140 -22.5zM397 236q0 -17 3 -30q25 33 42.5 72.5t17.5 69.5q0 16 -10 16q-12 0 -24.5 -19.5t-20.5 -49t-8 -59.5z" />
    <glyph glyph-name="A" unicode="A" horiz-adv-x="413" 
d="M-36 0q-6 0 -8.5 4.5t-0.5 8.5l359 669q5 8 12 8q9 0 9 -8l2 -669q0 -4 -2 -8.5t-10 -4.5q-9 0 -9 8v261h-200l-140 -261q-5 -8 -12 -8zM127 290h189l-1 351z" />
    <glyph glyph-name="B" unicode="B" horiz-adv-x="384" 
d="M9 0q-4 0 -7.5 3t-2.5 9l180 668q3 10 11 10h100q52 0 78.5 -39.5t26.5 -95.5q0 -70 -24.5 -124t-63.5 -83q20 -41 20 -101q0 -71 -32.5 -127t-85.5 -88t-116 -32h-84zM284 669h-86l-175 -648h76q55 0 102 29.5t75.5 81t28.5 118.5q0 52 -16 87q-28 -15 -59 -15
q-34 0 -55 17.5t-21 38.5q0 36 54 36q57 0 89 -47q33 25 54 74t21 110q0 48 -22 83t-66 35zM175 379q0 -13 15.5 -24.5t40.5 -11.5t48 12q-26 39 -75 39q-29 0 -29 -15z" />
    <glyph glyph-name="C" unicode="C" horiz-adv-x="374" 
d="M174 -5q-64 0 -95 51.5t-31 130.5q0 77 17.5 152.5t47.5 141.5t69.5 116.5t84 79t90.5 28.5q23 0 48.5 -9t41.5 -26q3 -3 3 -7q0 -5 -4 -9t-9 -4t-9 4q-13 15 -33 22.5t-40 7.5q-41 0 -81.5 -28t-77.5 -76.5t-65 -111.5t-44.5 -133.5t-16.5 -141.5t25.5 -119t80.5 -48
q20 0 46 7.5t48 23.5q5 3 8 3q8 0 8 -8q0 -7 -8 -12q-23 -17 -51.5 -26t-52.5 -9z" />
    <glyph glyph-name="D" unicode="D" horiz-adv-x="411" 
d="M9 0q-4 0 -7.5 3t-2.5 9l180 668q3 10 11 10h104q65 0 95.5 -51t30.5 -138q0 -71 -17 -143t-46.5 -136t-67.5 -114t-80.5 -79t-85.5 -29h-114zM292 669h-94l-175 -648h106q37 0 75 28t72.5 77t61.5 111t43 131t16 137q0 75 -24 119.5t-81 44.5z" />
    <glyph glyph-name="E" unicode="E" horiz-adv-x="336" 
d="M192 0q-86 0 -125 44.5t-39 113.5q0 48 16 93t43 81t61 56q-13 34 -13 82q0 58 26 108t78 81t130 31h32q9 0 9 -9q0 -12 -12 -12h-35q-71 0 -116.5 -28t-67.5 -74t-22 -100q0 -42 10 -69q26 11 52 11q29 0 51.5 -13t22.5 -35q0 -17 -15.5 -27t-38.5 -10q-55 0 -82 46
q-31 -18 -55 -50.5t-38 -74.5t-14 -87q0 -61 32.5 -99t115.5 -38h33q9 0 9 -9q0 -12 -12 -12h-36zM219 389q-22 0 -44 -9q21 -36 66 -36q13 0 22 4.5t9 13.5q0 13 -16.5 20t-36.5 7z" />
    <glyph glyph-name="F" unicode="F" horiz-adv-x="301" 
d="M9 0q-4 0 -7.5 3t-2.5 9l180 668q3 10 11 10h190q9 0 9 -9q0 -12 -12 -12h-179l-78 -287h167q9 0 9 -9q0 -12 -12 -12h-169l-95 -351q-3 -10 -11 -10z" />
    <glyph glyph-name="G" unicode="G" horiz-adv-x="391" 
d="M174 -5q-64 0 -95 51.5t-31 130.5q0 77 17.5 152.5t47.5 141.5t69.5 116.5t84 79t90.5 28.5q23 0 48.5 -9t41.5 -26q3 -3 3 -7q0 -5 -4 -9t-9 -4t-9 4q-13 15 -33 22.5t-40 7.5q-41 0 -81.5 -28t-77.5 -76.5t-65 -111.5t-44.5 -133.5t-16.5 -141.5t25.5 -119t80.5 -48
q26 0 53.5 10.5t50.5 30.5l60 221h-106q-9 0 -9 9q0 12 12 12h121q9 0 7 -9l-64 -237q-1 -6 -9 -12q-27 -22 -55.5 -34t-62.5 -12z" />
    <glyph glyph-name="H" unicode="H" horiz-adv-x="426" 
d="M9 0q-4 0 -7.5 3t-2.5 9l180 668q3 10 11 10q5 0 8.5 -3t1.5 -9l-80 -297h262l81 299q3 10 11 10q5 0 8.5 -3t1.5 -9l-180 -668q-3 -10 -11 -10q-4 0 -7.5 3t-2.5 9l94 348h-263l-94 -350q-3 -10 -11 -10z" />
    <glyph glyph-name="I" unicode="I" horiz-adv-x="142" 
d="M9 0q-4 0 -7.5 3t-2.5 9l180 668q3 10 11 10q5 0 8.5 -3t1.5 -9l-180 -668q-3 -10 -11 -10z" />
    <glyph glyph-name="J" unicode="J" horiz-adv-x="143" 
d="M-186 -183q-9 0 -9 9q0 12 12 12q71 0 111 36t62 106l10 32l180 668q3 10 11 10q5 0 8.5 -3t1.5 -9l-180 -668l-7 -24q-25 -88 -73.5 -128.5t-126.5 -40.5z" />
    <glyph glyph-name="K" unicode="K" horiz-adv-x="436" 
d="M48 0q-4 0 -7.5 3t-2.5 9l86 320h-17q-29 0 -43.5 9t-14.5 21q0 20 28.5 35.5t70.5 21.5l70 261q3 10 11 10q5 0 8.5 -3t1.5 -9l-69 -257h14q40 0 69 -13q23 22 45 52.5t43 70.5q23 43 41 72q-28 -1 -54 1q-9 2 -9 10q0 13 12 11q29 -3 65 -1q26 38 47 52t43 14
q33 0 33 -26t-33.5 -40.5t-77.5 -19.5q-10 -15 -21.5 -34.5t-23.5 -42.5q-45 -84 -91 -129q68 -46 59 -178l-14 -208q-1 -12 -12 -12q-9 0 -8 10l13 206q4 60 -7 103.5t-47 63.5q-48 -40 -110 -48l-87 -325q-3 -10 -11 -10zM486 670q-30 0 -62 -43q30 5 52 13.5t22 21.5
q0 8 -12 8zM179 400q-8 0 -15 -1l-11 -42q44 8 81 36q-24 7 -55 7zM71 364q0 -5 10.5 -8t26.5 -3q11 0 22 1l12 43q-29 -4 -50 -13.5t-21 -19.5z" />
    <glyph glyph-name="L" unicode="L" horiz-adv-x="349" 
d="M9 0h-1q-12 1 -9 12l180 668q3 10 11 10q5 0 8.5 -3t1.5 -9l-177 -657h226q9 0 9 -9q0 -12 -12 -12h-237z" />
    <glyph glyph-name="M" unicode="M" horiz-adv-x="533" 
d="M-6 0q-4 0 -7.5 3.5t-2.5 8.5l224 668q3 10 13 10q4 0 8 -4l95 -112q14 -16 23 -31q14 11 32 24l164 119q5 4 10 4q10 0 8 -10l-134 -670q-2 -10 -11 -10q-12 0 -10 11l129 643l-138 -100q-22 -16 -39 -30q16 -31 16 -64q0 -40 -19.5 -70.5t-44.5 -58.5q-5 -6 -9 -10
q3 -11 4.5 -23t1.5 -25q0 -27 -10 -56t-24.5 -48.5t-30.5 -19.5q-11 0 -16.5 11.5t-5.5 30.5q0 42 17.5 74t40.5 60q-1 4 -2 7.5t-2 7.5q-4 15 -8 30.5t-4 33.5q0 34 16.5 63.5t52.5 61.5q-10 16 -24 33l-83 97l-219 -649q-3 -10 -11 -10zM294 347q0 -2 1 -3q22 27 40 55
t18 61q0 24 -12 50q-31 -29 -44.5 -54t-13.5 -51q0 -15 3.5 -29t7.5 -29zM242 192q0 -6 1.5 -12.5t4.5 -8.5q9 4 17.5 21.5t14.5 40t6 40.5q0 14 -2 27q-18 -22 -30 -48.5t-12 -59.5z" />
    <glyph glyph-name="N" unicode="N" horiz-adv-x="423" 
d="M9 0q-4 0 -7.5 3t-2.5 9l180 668q3 10 11 10q9 0 10 -8l92 -624l168 622q3 10 11 10q5 0 8.5 -3t1.5 -9l-180 -668q-3 -10 -11 -10q-10 0 -11 11l-92 621l-167 -622q-3 -10 -11 -10z" />
    <glyph glyph-name="O" unicode="O" horiz-adv-x="462" 
d="M173 -5q-52 0 -88.5 44.5t-36.5 145.5q0 67 16 138.5t44.5 137.5t66 119t81.5 84t91 31q51 0 87.5 -44.5t36.5 -145.5q0 -67 -16 -138.5t-44.5 -137.5t-66 -119t-81 -84t-90.5 -31zM175 16q42 0 82 30.5t75 81.5t61 115t41 131.5t15 130.5q0 94 -30.5 131.5t-73.5 37.5
q-42 0 -82.5 -30.5t-75 -81.5t-61 -115t-41.5 -131.5t-15 -130.5q0 -94 31 -131.5t74 -37.5z" />
    <glyph glyph-name="P" unicode="P" horiz-adv-x="345" 
d="M9 0q-4 0 -7.5 3t-2.5 9l180 668q3 10 11 10h97q56 0 81 -34.5t25 -90.5q0 -67 -30 -121t-80 -86t-112 -32q-14 0 -30.5 2t-32.5 8l-88 -326q-3 -10 -11 -10zM281 669h-83l-85 -313q17 -5 32.5 -7t28.5 -2q56 0 100.5 30t70.5 79.5t26 108.5q0 47 -20 75.5t-70 28.5z" />
    <glyph glyph-name="Q" unicode="Q" horiz-adv-x="462" 
d="M94 -265q-11 0 -16.5 11.5t-5.5 30.5q0 42 17.5 74t40.5 60q-1 4 -2 7.5t-2 7.5q-4 15 -8 30.5t-4 33.5q0 11 2 21q-31 18 -49.5 60.5t-18.5 113.5q0 67 16 138.5t44.5 137.5t66 119t81.5 84t91 31q51 0 87.5 -44.5t36.5 -145.5q0 -76 -20 -156t-55 -152t-80.5 -124
t-96.5 -70q-8 -24 -23.5 -45t-33.5 -41q-5 -6 -9 -10q3 -11 4.5 -23t1.5 -25q0 -27 -10 -56t-24.5 -48.5t-30.5 -19.5zM176 160q14 -16 23 -31q14 11 32 24l177 128q19 55 30 113t11 111q0 94 -30.5 131.5t-73.5 37.5q-45 0 -88 -34.5t-79.5 -92.5t-62.5 -128.5t-37 -142.5z
M70 185q0 -62 14 -98.5t37 -53.5q14 40 62 82q-10 16 -24 33l-85 100q-4 -33 -4 -63zM226 46q0 -10 -1 -19q49 23 93 82t76 136l-145 -105q-22 -16 -39 -30q16 -31 16 -64zM175 16q13 0 27 3q3 14 3 27q0 24 -12 49q-42 -38 -53 -73q16 -6 35 -6zM173 -5q-20 0 -37 6
q-1 -5 -1 -10q0 -15 3.5 -29t7.5 -29q0 -2 1 -3q13 17 25.5 33t20.5 34q-10 -2 -20 -2zM94 -222q0 -6 1.5 -12.5t4.5 -8.5q9 4 17.5 21.5t14.5 40t6 40.5q0 14 -2 27q-18 -22 -30 -48.5t-12 -59.5z" />
    <glyph glyph-name="R" unicode="R" horiz-adv-x="401" 
d="M23 0q-4 0 -7.5 3t-2.5 9l88 325q-21 6 -34 17t-13 26q0 21 21.5 31t48.5 11l69 258q3 10 11 10h108q56 0 81.5 -35t25.5 -91q0 -69 -37.5 -126t-97.5 -87q16 -26 23.5 -63t6.5 -86l-4 -190q0 -7 -3.5 -9.5t-7.5 -2.5q-10 0 -10 11l3 187q1 96 -27 144q-42 -16 -88 -16
q-30 0 -56 6l-87 -322q-3 -10 -11 -10zM306 669h-94l-67 -246q41 -1 73.5 -14t54.5 -41q55 27 89.5 80t34.5 116q0 47 -20.5 76t-70.5 29zM140 403v0l-14 -51q25 -6 50 -6q40 0 77 14q-37 43 -113 43zM76 382q0 -7 8.5 -13.5t21.5 -11.5l12 45q-17 -1 -29.5 -6t-12.5 -14z
" />
    <glyph glyph-name="S" unicode="S" horiz-adv-x="353" 
d="M125 0q-64 0 -100 35.5t-36 96.5q0 20 11 20q10 0 10 -11q0 -60 30 -90t85 -30q65 0 106 42t41 117q0 49 -18 84t-44 66l-16 19q-28 35 -49.5 74.5t-21.5 96.5q0 52 20.5 91t56.5 61.5t82 22.5q48 0 80.5 -24.5t34.5 -71.5q0 -12 -11 -12q-9 0 -10 10q-2 36 -27 56.5
t-67 20.5q-60 0 -98.5 -42t-38.5 -111q0 -52 20.5 -90t47.5 -71l15 -18q28 -33 47 -71t19 -91q0 -55 -22.5 -95.5t-60.5 -62.5t-86 -22z" />
    <glyph glyph-name="T" unicode="T" horiz-adv-x="377" 
d="M126 0q-4 0 -7.5 3t-2.5 9l177 657h-156q-9 0 -9 9q0 12 12 12h336q9 0 9 -9q0 -12 -12 -12h-158l-178 -659q-3 -10 -11 -10z" />
    <glyph glyph-name="U" unicode="U" horiz-adv-x="413" 
d="M159 0q-78 0 -114 43t-14 125l138 512q3 10 11 10q5 0 8.5 -3t1.5 -9l-140 -521q-17 -65 12.5 -101t96.5 -36t104.5 36.5t56.5 104.5l140 519q3 10 11 10q5 0 8.5 -3t1.5 -9l-139 -516q-21 -78 -63 -120t-120 -42z" />
    <glyph glyph-name="V" unicode="V" horiz-adv-x="383" 
d="M128 0q-9 0 -9 8l14 669q0 5 2.5 9t9.5 4q9 0 9 -10l-15 -630l326 632q4 8 12 8q5 0 8 -4.5t-1 -12.5l-344 -665q-2 -4 -4.5 -6t-7.5 -2z" />
    <glyph glyph-name="W" unicode="W" horiz-adv-x="532" 
d="M36 0q-5 0 -6.5 3.5t-0.5 6.5l134 670q2 10 11 10q12 0 10 -10l-129 -645q52 46 106.5 102.5t96.5 114.5q-4 26 -4 52q0 45 10.5 85t27.5 65.5t37 25.5q12 0 20 -10t8 -29q0 -46 -22 -95.5t-56 -97.5q8 -53 30.5 -105t57.5 -109l217 646q3 10 12 10q5 0 8 -3t1 -9
l-224 -668q-3 -10 -13 -10q-5 0 -9 6q-36 57 -60.5 111.5t-35.5 107.5q-34 -45 -73 -86.5t-76.5 -76t-66.5 -58.5q-4 -4 -11 -4zM275 306q0 -14 1 -27q27 41 43.5 82t16.5 77q0 22 -10 22t-22 -25t-20.5 -60.5t-8.5 -68.5z" />
    <glyph glyph-name="X" unicode="X" horiz-adv-x="318" 
d="M-41 0q-6 0 -9 4.5t1 11.5l233 356l-36 304q-1 5 1 9.5t9 4.5q9 0 10 -10l33 -281l184 282q6 9 13 9q6 0 9.5 -4.5t-1.5 -11.5l-201 -308l41 -352q1 -5 -1 -9.5t-9 -4.5q-9 0 -10 10l-39 329l-215 -330q-6 -9 -13 -9z" />
    <glyph glyph-name="Y" unicode="Y" horiz-adv-x="371" 
d="M124 0q-4 0 -7.5 3t-2.5 9l81 304l-66 360q-1 5 1 9.5t9 4.5q8 0 10 -10l63 -338l244 339q6 9 13 9q6 0 9.5 -4.5t-1.5 -11.5l-261 -363l-81 -301q-3 -10 -11 -10z" />
    <glyph glyph-name="Z" unicode="Z" horiz-adv-x="309" 
d="M-37 0q-9 0 -9 9q0 4 2 7l414 653h-219q-9 0 -9 9q0 12 12 12h238q9 0 9 -9q0 -3 -3 -8l-414 -652h240q9 0 9 -9q0 -12 -12 -12h-258z" />
    <glyph glyph-name="bracketleft" unicode="[" horiz-adv-x="194" 
d="M-11 -64q-9 0 -7 10l212 792q3 10 13 10h112q9 0 9 -9q0 -12 -12 -12h-104l-206 -770h100q9 0 9 -9q0 -12 -12 -12h-114z" />
    <glyph glyph-name="backslash" unicode="\" horiz-adv-x="270" 
d="M177 -64q-4 0 -7.5 2.5t-3.5 9.5l-27 786q0 14 9 14q4 0 7.5 -2t3.5 -10l28 -786q0 -14 -10 -14z" />
    <glyph glyph-name="bracketright" unicode="]" horiz-adv-x="194" 
d="M261 748q9 0 7 -10l-212 -792q-3 -10 -13 -10h-112q-9 0 -9 9q0 12 12 12h104l206 770h-100q-9 0 -9 9q0 12 12 12h114z" />
    <glyph glyph-name="asciicircum" unicode="^" horiz-adv-x="417" 
d="M51 305q-8 0 -9.5 5.5t1.5 9.5l275 364q4 6 10 6q9 0 10 -6l79 -364q2 -5 -1 -10t-8 -5q-8 0 -11 9l-74 343l-261 -346q-4 -6 -11 -6z" />
    <glyph glyph-name="underscore" unicode="_" horiz-adv-x="556" 
d="M-18 -21q-9 0 -9 9q0 12 12 12h455q9 0 9 -9q0 -12 -12 -12h-455z" />
    <glyph glyph-name="grave" unicode="`" horiz-adv-x="209" 
d="M220 532q-7 0 -10 8l-41 94q-3 8 0.5 12t7.5 4q7 0 10 -7l41 -94q4 -8 0.5 -12.5t-8.5 -4.5z" />
    <glyph glyph-name="a" unicode="a" horiz-adv-x="324" 
d="M62 -5q-23 0 -36.5 20.5t-13.5 58.5q0 50 13 106.5t34.5 110t48.5 96.5t55.5 69t53.5 26t39 -25t14 -70q0 -13 -1 -26.5t-4 -29.5q-2 -9 -10 -9q-12 0 -10 12q2 14 3 27t1 25q0 35 -9 55t-26 20q-20 0 -44.5 -25.5t-49 -68t-44.5 -93.5t-32 -102t-12 -94q0 -62 30 -62
q14 0 31 11t33 29v13q0 48 12 93t31.5 73.5t40.5 28.5q24 0 24 -30q0 -26 -12 -59t-32 -66.5t-43 -60.5q3 -27 18 -27q12 0 29.5 18t36 47.5t32.5 62.5q4 10 12 10q5 0 8 -4.5t1 -9.5q-28 -66 -61 -105.5t-59 -39.5q-25 0 -34 31q-17 -17 -34.5 -26.5t-33.5 -9.5zM207 243
q-12 0 -25 -25t-23 -62.5t-12 -74.5q27 36 46.5 79.5t19.5 74.5q0 8 -6 8z" />
    <glyph glyph-name="b" unicode="b" horiz-adv-x="326" 
d="M82 -5q-27 0 -43 17t-16 47q0 26 10 71t34 134l119 439q3 10 11 10q5 0 8.5 -3t1.5 -9l-78 -288q48 69 102 69q36 0 56.5 -29.5t20.5 -84.5q0 -44 -13 -94.5t-35.5 -100t-51.5 -90t-61.5 -64.5t-64.5 -24zM44 60q0 -44 39 -44q27 0 55.5 23t55 61t47 84.5t33 94
t12.5 89.5q0 93 -56 93q-30 0 -59.5 -26.5t-52.5 -63.5l-35 -130q-22 -81 -30.5 -121t-8.5 -60z" />
    <glyph glyph-name="c" unicode="c" horiz-adv-x="283" 
d="M96 -5q-32 0 -52 31t-20 93q0 46 10.5 96t29 97.5t42.5 86t52.5 61t58.5 22.5q37 0 54 -25t20 -67q2 -17 -12 -17q-10 0 -10 10q-1 32 -14 55t-39 23q-25 0 -49.5 -22t-46.5 -58.5t-38.5 -81.5t-26 -91.5t-9.5 -88.5q0 -53 14 -78t37 -25q26 0 50 22t45 58q5 9 12 9
t9.5 -5.5t-2.5 -13.5q-25 -43 -55 -67t-60 -24z" />
    <glyph glyph-name="d" unicode="d" horiz-adv-x="308" 
d="M95 -5q-34 0 -53 28t-19 86q0 64 17 129.5t45.5 120.5t62.5 89t67 34q19 0 37 -11.5t27 -35.5l72 268q3 10 11 10q5 0 8.5 -3t1.5 -9l-186 -691q-3 -10 -11 -10q-4 0 -7.5 3t-2.5 9l6 23q-36 -40 -76 -40zM45 109q0 -48 14 -70.5t39 -22.5q23 0 43.5 15.5t39.5 38.5
l90 335q-7 26 -22.5 41t-33.5 15q-22 0 -46 -21.5t-46 -58.5t-39.5 -83t-28 -95t-10.5 -94z" />
    <glyph glyph-name="e" unicode="e" horiz-adv-x="273" 
d="M96 -5q-27 0 -43.5 24t-16.5 76q0 35 7.5 76t20.5 82q-13 -6 -26 -10q-5 -1 -9.5 2.5t-4.5 8.5q0 8 8 10q19 5 42 16q19 54 44.5 100t53.5 74t54 28q32 0 32 -35q0 -30 -23.5 -63.5t-61.5 -64.5t-80 -53q-16 -45 -26 -90t-10 -82q0 -43 11 -60.5t28 -17.5q28 0 58 38
t55 99q3 6 9 6q5 0 8.5 -4.5t1.5 -10.5q-29 -70 -62.5 -109.5t-69.5 -39.5zM226 461q-19 0 -40.5 -22.5t-42.5 -59.5t-39 -82q33 20 63.5 45.5t50 53t19.5 51.5q0 14 -11 14z" />
    <glyph glyph-name="f" unicode="f" horiz-adv-x="184" 
d="M67 446q-9 0 -9 9q0 12 12 12h65v1l23 76q26 89 71 129t120 40q9 0 9 -9q0 -12 -12 -12q-67 0 -104.5 -35.5t-59.5 -106.5l-25 -83h70q9 0 9 -9q0 -12 -12 -12h-73l-118 -436q-3 -10 -11 -10q-4 0 -7.5 3t-2.5 9l117 434h-62z" />
    <glyph glyph-name="g" unicode="g" horiz-adv-x="290" 
d="M50 -192q-13 0 -23.5 10.5t-10.5 32.5q0 32 19 74t50 84.5t69 76.5q-6 47 -35 61q-35 -47 -56 -65t-39 -18q-27 0 -27 27q0 21 14 40t36.5 30.5t47.5 11.5q9 0 16 -1q11 14 23 30q-32 3 -51 28.5t-19 66.5q0 42 18.5 84t49.5 69.5t70 27.5q28 0 47 -17v10q0 26 9 47.5
t34 21.5q10 0 10 -10q0 -11 -10 -11q-13 0 -18 -15t-4 -38l1 -36q8 -21 8 -47q0 -38 -15.5 -76.5t-42 -67t-60.5 -35.5q-16 -22 -29 -40q31 -16 40 -61q14 12 28 21q6 4 11.5 0.5t5.5 -9.5q0 -5 -5 -9q-18 -12 -36 -28v-15q0 -43 -11 -87.5t-29.5 -82.5t-41 -61.5
t-44.5 -23.5zM141 223q31 0 57.5 24.5t43 61.5t16.5 74q0 29 -12.5 51.5t-43.5 22.5t-57.5 -24.5t-43 -61.5t-16.5 -74q0 -28 12.5 -51t43.5 -23zM18 92q0 -7 7 -7q10 0 27 16t44 51h-1q-18 0 -36 -9t-29.5 -22.5t-11.5 -28.5zM37 -149q0 -22 14 -22q16 0 34 23t34 58.5
t26 75t10 72.5q-33 -32 -59.5 -69.5t-42.5 -73.5t-16 -64z" />
    <glyph glyph-name="h" unicode="h" horiz-adv-x="308" 
d="M9 0q-4 0 -7.5 3t-2.5 9l186 691q3 10 11 10q5 0 8.5 -3t1.5 -9l-63 -234v-2l-10 -37q52 54 101 54q42 0 57.5 -29.5t1.5 -81.5l-97 -361q-3 -10 -11 -10q-10 0 -7 11l94 360q24 90 -38 90q-27 0 -54.5 -17.5t-55.5 -50.5l-104 -383q-3 -10 -11 -10z" />
    <glyph glyph-name="i" unicode="i" horiz-adv-x="143" 
d="M152 531q-4 0 -7.5 3t-2.5 9l27 97q3 10 11 10q5 0 8.5 -3t1.5 -9l-27 -97q-3 -10 -11 -10zM9 0q-4 0 -7.5 3t-2.5 9l123 455q3 10 11 10q5 0 8.5 -3t1.5 -9l-123 -455q-3 -10 -11 -10z" />
    <glyph glyph-name="j" unicode="j" horiz-adv-x="143" 
d="M152 531q-4 0 -7.5 3t-2.5 9l27 97q3 10 11 10q5 0 8.5 -3t1.5 -9l-27 -97q-3 -10 -11 -10zM-178 -187q-9 0 -9 9q0 12 12 12q67 0 105 36t58 106l16 56l118 435q3 10 11 10q5 0 8.5 -3t1.5 -9l-123 -455l-8 -28q-25 -90 -70.5 -129.5t-119.5 -39.5z" />
    <glyph glyph-name="k" unicode="k" horiz-adv-x="365" 
d="M28 0q-4 0 -7.5 3t-2.5 9l58 215h-3q-51 0 -51 33q0 23 23.5 37.5t53.5 14.5l105 391q3 10 11 10q5 0 8.5 -3t1.5 -9l-105 -390q36 -6 53 -35q39 19 73.5 46.5t56 57.5t21.5 55q0 27 -25 27q-27 0 -60.5 -34t-65.5 -96q-3 -6 -9 -6q-5 0 -9 4.5t0 11.5q35 67 72.5 104
t71.5 37q21 0 33.5 -13t12.5 -35q0 -30 -23 -63.5t-60.5 -64t-80.5 -51.5q6 -18 6 -41q0 -20 -3 -44.5t-7 -47.5q-3 -20 -5 -37.5t-2 -29.5q0 -20 6.5 -30.5t15.5 -10.5q20 0 47 37t55 113q3 8 10 8q5 0 8.5 -4t1.5 -10q-33 -85 -63 -124.5t-59 -39.5q-19 0 -31 16t-12 46
q0 29 8 72q4 22 6.5 44t2.5 39q0 20 -5 35q-33 -14 -63 -18l-59 -219q-3 -10 -11 -10zM43 260q0 -12 30 -12h9l11 43q-19 -2 -34.5 -11t-15.5 -20zM115 291l-11 -40q23 5 49 16q-13 21 -38 24z" />
    <glyph glyph-name="l" unicode="l" horiz-adv-x="142" 
d="M9 0q-4 0 -7.5 3t-2.5 9l186 691q3 10 11 10q5 0 8.5 -3t1.5 -9l-186 -691q-3 -10 -11 -10z" />
    <glyph glyph-name="m" unicode="m" horiz-adv-x="408" 
d="M9 0q-4 0 -7.5 3t-2.5 9l123 455q3 10 11 10q2 0 4 -0.5t6 -3.5q34 -25 58.5 -53.5t38.5 -61.5q61 67 160 116q8 3 10 3q5 0 8 -3.5t1 -8.5l-123 -455q-3 -10 -11 -10q-4 0 -7.5 3t-2.5 9l117 434q-90 -47 -145 -110q6 -23 6 -47q0 -29 -9.5 -60.5t-24 -53t-30.5 -21.5
q-11 0 -18 10.5t-7 26.5q0 75 59 148q-9 29 -30 56.5t-54 54.5l-119 -440q-3 -10 -11 -10zM186 196q0 -20 6 -20q7 0 16 19t16 46.5t7 51.5q0 11 -2 21q-43 -60 -43 -118z" />
    <glyph glyph-name="n" unicode="n" horiz-adv-x="308" 
d="M9 0q-4 0 -7.5 3t-2.5 9l123 455q3 10 11 10q5 0 8.5 -3t1.5 -9l-10 -37q52 54 101 54q42 0 57.5 -29.5t1.5 -81.5l-97 -361q-3 -10 -11 -10q-10 0 -7 11l94 360q24 90 -38 90q-27 0 -54.5 -17.5t-55.5 -50.5l-104 -383q-3 -10 -11 -10z" />
    <glyph glyph-name="o" unicode="o" horiz-adv-x="314" 
d="M96 -5q-32 0 -52 31t-20 93q0 46 10.5 96t29 97.5t42.5 86t52.5 61t58.5 22.5q33 0 53 -31t20 -93q0 -46 -10.5 -96t-29 -97.5t-43.5 -86t-53 -61t-58 -22.5zM97 16q25 0 50 22t46.5 58.5t38.5 81.5t26.5 91.5t9.5 88.5q0 53 -14 78t-38 25q-25 0 -49.5 -22t-46.5 -58.5
t-38.5 -81.5t-26 -91.5t-9.5 -88.5q0 -53 14 -78t37 -25z" />
    <glyph glyph-name="p" unicode="p" horiz-adv-x="307" 
d="M92 -5q-19 0 -36.5 11.5t-26.5 34.5l-59 -218q-3 -10 -11 -10q-4 0 -7.5 3t-2.5 9l164 610q-19 -11 -37 -24q-7 -4 -12 -1t-5 8q0 7 7 11q27 20 54 32l15 55q3 10 11 10q5 0 8.5 -3t1.5 -9l-11 -43q30 11 56 11q83 0 83 -114q0 -64 -17 -129.5t-45.5 -120.5t-62.5 -89
t-67 -34zM198 461q-26 0 -60 -14l-101 -376q6 -26 21.5 -40.5t33.5 -14.5q22 0 46 21.5t46 58.5t39.5 83t28 95t10.5 94q0 93 -64 93z" />
    <glyph glyph-name="q" unicode="q" horiz-adv-x="295" 
d="M95 -5q-34 0 -53 28t-19 86q0 64 17 129.5t45.5 120.5t62.5 89t67 34q19 0 36.5 -11.5t26.5 -34.5l22 80q3 10 11 10q5 0 9.5 -3t2.5 -10l-173 -629q-7 -28 0 -39t29 -11q9 0 9 -9q0 -12 -14 -12q-28 0 -41 18t-5 48l42 154q-36 -38 -75 -38zM45 109q0 -48 14 -70.5
t39 -22.5q23 0 43.5 15t37.5 37l91 338q-6 26 -21.5 40.5t-33.5 14.5q-22 0 -46 -21.5t-46 -58.5t-39.5 -83t-28 -95t-10.5 -94z" />
    <glyph glyph-name="r" unicode="r" horiz-adv-x="277" 
d="M9 0q-4 0 -7.5 3t-2.5 9l123 455q3 10 11 10q5 0 8.5 -3t1.5 -9l-10 -37q52 54 101 54q30 0 48 -15t18 -47q0 -23 -9 -56q-3 -12 -12 -12q-12 0 -9 12q9 32 9 51q0 25 -12 35.5t-33 10.5q-27 0 -54.5 -17.5t-55.5 -50.5l-104 -383q-3 -10 -11 -10z" />
    <glyph glyph-name="s" unicode="s" horiz-adv-x="250" 
d="M67 0q-37 5 -58.5 30.5t-21.5 65.5q0 10 10 10q11 0 11 -10q0 -32 16.5 -52t44.5 -23q29 -4 58.5 13t36.5 60q6 31 -4.5 69.5t-35.5 74.5q-21 30 -36 68.5t-4 86.5q12 49 44.5 67.5t61.5 16.5q24 -1 47 -18t27 -46q2 -10 -8 -12t-12 8q-4 21 -20.5 33.5t-33.5 13.5
q-25 2 -50.5 -13t-34.5 -55q-10 -42 3 -75.5t33 -62.5q27 -39 39 -82t5 -78q-6 -35 -25.5 -56t-44 -29t-48.5 -5z" />
    <glyph glyph-name="t" unicode="t" horiz-adv-x="208" 
d="M104 0q-48 0 -60.5 24.5t-1.5 65.5l96 356h-66q-9 0 -9 9q0 12 12 12h69l34 126q3 10 11 10q12 0 9 -13l-33 -123h67q9 0 9 -9q0 -12 -12 -12h-70l-95 -355q-11 -41 -1 -55.5t47 -14.5q8 0 8 -9q0 -12 -14 -12z" />
    <glyph glyph-name="u" unicode="u" horiz-adv-x="307" 
d="M74 -5q-42 0 -57.5 29.5t-1.5 81.5l97 361q3 10 11 10q10 0 7 -11l-94 -360q-24 -90 38 -90q50 0 109 66l104 385q3 10 11 10q5 0 8.5 -3t1.5 -9l-123 -455q-3 -10 -11 -10q-4 0 -7.5 3t-2.5 9l10 35q-51 -52 -100 -52z" />
    <glyph glyph-name="v" unicode="v" horiz-adv-x="286" 
d="M80 0q-9 0 -9 8l10 456q0 13 13 13q9 0 9 -8l-11 -418l213 418q5 8 12 8q5 0 8.5 -4t0.5 -9l-234 -456q-4 -8 -12 -8z" />
    <glyph glyph-name="w" unicode="w" horiz-adv-x="397" 
d="M16 0q-10 0 -8 10l83 457q2 10 13 10q10 0 8 -10l-79 -428q50 46 84.5 83.5t57.5 67.5q-7 32 -7 59q0 51 17 82.5t42 31.5q28 0 28 -39q0 -24 -11 -57t-46 -81q14 -58 55 -151l153 432q3 10 14 10t8 -10l-162 -457q-3 -10 -14 -10q-2 0 -4.5 0.5t-4.5 4.5
q-21 47 -36.5 86.5t-25.5 72.5q-25 -32 -63 -72t-91 -88q-4 -3 -6.5 -3.5t-4.5 -0.5zM190 249q0 -16 3 -34q23 35 31.5 61.5t8.5 47.5q0 17 -9 17q-11 0 -22.5 -28t-11.5 -64z" />
    <glyph glyph-name="x" unicode="x" horiz-adv-x="314" 
d="M14 -5q-33 0 -48 21q-4 6 -1.5 12t9.5 6q5 0 9 -5q10 -13 31 -13q22 0 45.5 19t45.5 51q-2 14 -2 30q0 47 11 98t30 98t44 85q-10 64 -47 64q-22 0 -38 -19q-4 -4 -8 -4q-6 0 -9.5 6t1.5 12q10 11 23.5 18.5t29.5 7.5q47 0 64 -62q22 28 46.5 45t49.5 17q33 0 48 -21
q5 -6 2.5 -12t-10.5 -6q-5 0 -9 5q-10 13 -31 13q-22 0 -45.5 -19t-45.5 -51q2 -14 2 -30q0 -47 -11 -98t-30 -98t-44 -85q10 -64 47 -64q22 0 38 19q4 4 8 4q6 0 9.5 -6t-1.5 -12q-10 -11 -23.5 -18.5t-29.5 -7.5q-47 0 -64 62q-22 -28 -46.5 -45t-49.5 -17zM190 359
q-29 -53 -47.5 -118t-18.5 -123q29 53 47.5 118t18.5 123z" />
    <glyph glyph-name="y" unicode="y" horiz-adv-x="287" 
d="M-94 -187q-9 0 -9 9q0 12 12 12q40 0 72.5 29t65.5 95l25 50l10 456q0 13 13 13q9 0 9 -8l-11 -418l213 418q5 8 12 8q5 0 8.5 -4t0.5 -9l-233 -455l-21 -44q-38 -82 -76.5 -117t-90.5 -35z" />
    <glyph glyph-name="z" unicode="z" horiz-adv-x="233" 
d="M-32 0q-9 0 -9 9q0 2 0.5 3.5t2.5 5.5l280 438h-143q-9 0 -9 9q0 12 12 12h161q9 0 9 -9q0 -3 -4 -10l-280 -437h155q9 0 9 -9q0 -12 -12 -12h-172z" />
    <glyph glyph-name="braceleft" unicode="{" horiz-adv-x="306" 
d="M162 -64q-74 0 -52 77l64 229q8 28 9 48.5t-3 34.5q-34 -28 -77 -28q-27 0 -42 11t-15 29q0 21 20.5 35.5t53.5 14.5q44 0 66 -28q13 15 23.5 35.5t17.5 47.5l62 229q10 35 30 56t60 21h52q9 0 9 -9q0 -12 -12 -12h-55q-27 0 -41 -13t-23 -45l-61 -227q-9 -34 -22 -59
t-30 -43q7 -17 7.5 -41.5t-8.5 -56.5l-61 -227q-7 -28 -2.5 -43t34.5 -15h53q9 0 9 -9q0 -12 -12 -12h-54zM68 338q0 -7 9.5 -13.5t26.5 -6.5q37 0 67 26q-8 12 -21.5 17t-30.5 5q-21 0 -36 -8.5t-15 -19.5z" />
    <glyph glyph-name="bar" unicode="|" horiz-adv-x="142" 
d="M-8 -64q-4 0 -7.5 3t-2.5 9l212 790q3 10 11 10q5 0 8.5 -3t1.5 -9l-212 -790q-3 -10 -11 -10z" />
    <glyph glyph-name="braceright" unicode="}" horiz-adv-x="306" 
d="M200 748q74 0 52 -77l-64 -229q-8 -28 -9 -48.5t3 -34.5q34 28 77 28q27 0 42 -11t15 -29q0 -21 -20.5 -35.5t-53.5 -14.5q-44 0 -66 28q-13 -15 -23.5 -35.5t-17.5 -47.5l-62 -229q-10 -35 -30 -56t-60 -21h-52q-9 0 -9 9q0 12 12 12h55q27 0 41 13t23 45l61 227
q9 34 22 59t30 43q-7 17 -7.5 41.5t8.5 56.5l61 227q7 28 2.5 43t-34.5 15h-53q-9 0 -9 9q0 12 12 12h54zM294 346q0 7 -9.5 13.5t-26.5 6.5q-37 0 -67 -26q8 -12 21.5 -17t30.5 -5q21 0 36 8.5t15 19.5z" />
    <glyph glyph-name="asciitilde" unicode="~" horiz-adv-x="434" 
d="M52 233q-7 0 -9.5 5t1.5 10q22 27 45.5 41.5t49.5 14.5q23 0 59 -14l66 -25q14 -5 25.5 -8t22.5 -3q20 0 37 10t39 35q5 5 10 5q7 0 10 -5t-2 -10q-22 -27 -45.5 -41.5t-49.5 -14.5q-23 0 -59 14l-66 25q-13 5 -25 8t-23 3q-19 0 -36.5 -10t-39.5 -35q-5 -5 -10 -5z" />
    <glyph glyph-name="uni00A0" unicode="&#xa0;" horiz-adv-x="240" 
 />
    <glyph glyph-name="exclamdown" unicode="&#xa1;" horiz-adv-x="143" 
d="M106 377q4 0 7.5 -3t2.5 -9l-131 -485q-3 -10 -11 -10q-5 0 -8.5 3t-1.5 9l131 485q3 10 11 10zM156 560q4 0 7.5 -3t2.5 -9l-22 -79q-3 -10 -11 -10q-5 0 -8.5 3t-1.5 9l22 79q3 10 11 10z" />
    <glyph glyph-name="cent" unicode="&#xa2;" horiz-adv-x="278" 
d="M66 -86q-4 0 -7.5 3t-2.5 9l24 91q-25 7 -40.5 35.5t-15.5 76.5t14.5 102.5t39 104t56 83.5t65.5 41l25 94q3 10 11 10q5 0 8.5 -3t1.5 -9l-24 -90q28 -3 42.5 -27.5t17.5 -64.5q2 -17 -12 -17q-10 0 -10 10q-1 32 -12 55t-32 23l-108 -404q23 4 44.5 25.5t40.5 53.5
q5 9 12 9t9.5 -5.5t-2.5 -13.5q-24 -41 -52.5 -65t-57.5 -26l-24 -91q-3 -10 -11 -10zM46 129q0 -80 40 -91l107 400q-27 -10 -53 -43.5t-47.5 -79.5t-34 -95t-12.5 -91z" />
    <glyph glyph-name="sterling" unicode="&#xa3;" horiz-adv-x="332" 
d="M-39 0q-8 0 -8 7q0 6 8 12q39 31 80 69t69 86.5t28 108.5q0 13 -1 26h-76q-9 0 -9 9q0 12 12 12h70q-2 15 -5.5 30t-7.5 30q-7 28 -13 55.5t-6 55.5q0 58 23.5 101.5t64.5 68t93 24.5q50 0 75.5 -25.5t29.5 -66.5q2 -16 -11 -16q-10 0 -10 8q-3 38 -23.5 58.5t-61.5 20.5
q-44 0 -80 -21.5t-57 -60t-21 -91.5q0 -25 5 -51t12 -52q5 -17 9 -34t7 -34h113q9 0 9 -9q0 -12 -12 -12h-108q1 -12 1 -23q0 -62 -26 -110.5t-63.5 -86t-73.5 -68.5h245q9 0 9 -9q0 -12 -12 -12h-278z" />
    <glyph glyph-name="currency" unicode="&#xa4;" horiz-adv-x="542" 
d="M63 112q-7 0 -9 6.5t3 10.5l89 75l1 1q-26 36 -26 84q0 42 16.5 78t44.5 62l-58 72q-4 6 0 11.5t8 5.5t7 -3l60 -72q25 18 55.5 28.5t64.5 10.5q32 0 58.5 -11t45.5 -31v0l88 75q5 3 9 3q7 0 9 -6t-3 -11l-89 -75q-1 -1 -2 -1q26 -36 26 -84q0 -42 -16.5 -78t-43.5 -62
l58 -72q5 -6 1 -11.5t-9 -5.5q-4 0 -7 3l-60 72q-25 -18 -55.5 -28.5t-64.5 -10.5q-33 0 -59.5 11t-44.5 31l-88 -75q-4 -3 -9 -3zM266 170q48 0 87 22.5t62.5 61t23.5 85.5q0 51 -33 86t-89 35q-47 0 -86.5 -22.5t-63 -60.5t-23.5 -86q0 -50 32.5 -85.5t89.5 -35.5z" />
    <glyph glyph-name="yen" unicode="&#xa5;" horiz-adv-x="371" 
d="M124 0q-4 0 -7.5 3t-2.5 9l33 125h-108q-9 0 -9 9q0 12 12 12h111l22 82h-108q-9 0 -9 9q0 12 12 12h110l15 55l-66 360q-1 5 1 9.5t9 4.5q8 0 10 -10l63 -338l244 339q6 9 13 9q6 0 9.5 -4.5t-1.5 -11.5l-261 -363l-14 -50h109q9 0 9 -9q0 -12 -12 -12h-111l-22 -82h108
q9 0 9 -9q0 -12 -12 -12h-111l-34 -127q-3 -10 -11 -10z" />
    <glyph glyph-name="brokenbar" unicode="&#xa6;" horiz-adv-x="142" 
d="M118 406q-4 0 -7.5 3t-2.5 9l86 320q3 10 11 10q5 0 8.5 -3t1.5 -9l-86 -320q-3 -10 -11 -10zM-8 -64q-4 0 -7.5 3t-2.5 9l86 320q3 10 11 10q5 0 8.5 -3t1.5 -9l-86 -320q-3 -10 -11 -10z" />
    <glyph glyph-name="section" unicode="&#xa7;" horiz-adv-x="306" 
d="M57 -89q-46 0 -73.5 24t-30.5 68q-2 16 12 16q9 0 9 -8q3 -37 23 -58t60 -21q39 0 71 18.5t50.5 49.5t18.5 68q0 42 -22.5 68.5t-49.5 48.5q-28 23 -50 49.5t-22 68.5q0 40 21 74t55.5 55t74.5 22q-3 3 -7 6q-28 24 -52 53t-24 76q0 44 21 80t56.5 57.5t78.5 21.5
q44 0 71 -24t30 -68q2 -16 -12 -16q-9 0 -9 8q-3 38 -22.5 58.5t-57.5 20.5q-35 0 -65.5 -19t-49 -49.5t-18.5 -67.5q0 -42 22 -68.5t49 -49.5q27 -22 49.5 -48.5t22.5 -69.5q0 -39 -21 -73t-55.5 -55t-74.5 -22q3 -3 8 -7q28 -24 52 -53t24 -76q0 -44 -21.5 -80t-58.5 -57
t-83 -21zM77 306q0 -27 11.5 -46.5t28.5 -36.5q37 -5 71 12.5t55 49t21 67.5q0 27 -11.5 47t-28.5 37q-38 4 -71.5 -13.5t-54.5 -48.5t-21 -68z" />
    <glyph glyph-name="dieresis" unicode="&#xa8;" horiz-adv-x="243" 
d="M152 531q-4 0 -7.5 3t-2.5 9l27 97q3 10 11 10q5 0 8.5 -3t1.5 -9l-27 -97q-3 -10 -11 -10zM252 531q-4 0 -7.5 3t-2.5 9l27 97q3 10 11 10q5 0 8.5 -3t1.5 -9l-27 -97q-3 -10 -11 -10z" />
    <glyph glyph-name="copyright" unicode="&#xa9;" horiz-adv-x="785" 
d="M371 0q-90 0 -158 36.5t-106 102.5t-38 155q0 82 31 154t86.5 126.5t129 85t157.5 30.5q91 0 158.5 -36t104.5 -102t37 -156q0 -82 -31 -154t-86 -126.5t-128 -85t-157 -30.5zM371 21q80 0 149 28.5t120.5 80t80.5 119.5t29 147q0 84 -34 145.5t-96 94.5t-147 33
q-80 0 -149.5 -29.5t-121.5 -81t-81.5 -119.5t-29.5 -145q0 -83 34.5 -144.5t97.5 -95t148 -33.5zM381 120q-41 0 -58 31.5t-17 77.5q0 61 17 121.5t45.5 110t63.5 79.5t70 30q14 0 30 -5t26 -13q4 -3 4 -7q0 -7 -5 -10.5t-11 0.5q-10 8 -24 11t-23 3q-31 0 -61.5 -29
t-55.5 -77t-40 -104.5t-15 -110.5q0 -37 13 -62t47 -25q14 0 27 5t28 12q5 3 10 0.5t5 -8.5q0 -5 -3 -7.5t-5 -3.5q-17 -9 -34 -14t-34 -5z" />
    <glyph glyph-name="ordfeminine" unicode="&#xaa;" horiz-adv-x="232" 
d="M125 381q-16 0 -27 13t-11 38q0 41 12.5 86.5t33 85.5t43.5 65.5t44 25.5q16 0 25 -16t9 -45q0 -8 -0.5 -17t-2.5 -19q-2 -8 -10 -8q-11 0 -9 10q2 9 2 17.5v15.5q0 40 -16 40t-35 -24.5t-36 -62t-28 -78.5t-11 -74q0 -32 18 -32q12 0 27 13q-1 6 -1 13q0 33 9 63
t23.5 49.5t30.5 19.5q10 0 16.5 -6.5t6.5 -18.5q0 -26 -18.5 -63t-43.5 -62q3 -5 9 -5q13 0 31 21.5t33 53.5q2 3 4.5 6.5t7.5 3.5q6 0 9 -4t1 -9q-19 -43 -42 -68t-46 -25q-15 0 -23 12q-19 -15 -35 -15zM213 540q-8 0 -17.5 -16.5t-16 -41.5t-8.5 -49q19 22 32.5 51
t13.5 51q0 5 -4 5z" />
    <glyph glyph-name="guillemotleft" unicode="&#xab;" horiz-adv-x="406" 
d="M174 95q-4 0 -7 4l-112 180q-2 4 -2 7q0 5 2.5 7.5l4.5 4.5l210 181q4 4 9 4t8.5 -6t-3.5 -12l-209 -180l108 -174q3 -4 1 -10t-10 -6zM314 95q-4 0 -7 4l-112 180q-2 4 -2 7q0 5 2.5 7.5l4.5 4.5l210 181q4 4 9 4t8.5 -6t-3.5 -12l-209 -180l108 -174q3 -4 1 -10t-10 -6
z" />
    <glyph glyph-name="logicalnot" unicode="&#xac;" horiz-adv-x="558" 
d="M68 298q-9 0 -9 9q0 12 12 12h456q3 0 6 -2v-1l2 -2t1.5 -2.5t-0.5 -1.5v0v0v-3l-40 -147q-3 -10 -11 -10q-4 0 -7.5 3t-2.5 9l37 136h-444z" />
    <glyph glyph-name="uni00AD" unicode="&#xad;" horiz-adv-x="256" 
d="M63 279q-9 0 -9 9q0 12 12 12h186q9 0 9 -9q0 -12 -12 -12h-186z" />
    <glyph glyph-name="registered" unicode="&#xae;" horiz-adv-x="785" 
d="M371 0q-90 0 -158 36.5t-106 102.5t-38 155q0 82 31 154t86.5 126.5t129 85t157.5 30.5q91 0 158.5 -36t104.5 -102t37 -156q0 -82 -31 -154t-86 -126.5t-128 -85t-157 -30.5zM371 21q80 0 149 28.5t120.5 80t80.5 119.5t29 147q0 84 -34 145.5t-96 94.5t-147 33
q-80 0 -149.5 -29.5t-121.5 -81t-81.5 -119.5t-29.5 -145q0 -83 34.5 -144.5t97.5 -95t148 -33.5zM305 122q-13 0 -9 11l110 410q4 11 13 11h65q32 0 47.5 -22t15.5 -54q0 -43 -20 -77t-53 -53q10 -15 13 -30t3 -40l-2 -143q0 -13 -12 -13q-10 0 -10 8l3 143q1 19 -1.5 35.5
t-12.5 30.5q-23 -9 -48 -9q-9 0 -18.5 1t-17.5 3l-54 -201q-3 -11 -12 -11zM412 351q30 0 55.5 17.5t41.5 46.5t16 62q0 22 -10.5 39t-36.5 17h-54l-47 -177q8 -3 17 -4t18 -1z" />
    <glyph glyph-name="macron" unicode="&#xaf;" horiz-adv-x="266" 
d="M163 579q-9 0 -9 9q0 12 12 12h125q9 0 9 -9q0 -12 -12 -12h-125z" />
    <glyph glyph-name="degree" unicode="&#xb0;" horiz-adv-x="355" 
d="M247 440q-49 0 -79 31.5t-30 78.5q0 40 20 71.5t53 50t72 18.5q50 0 79.5 -31t29.5 -78q0 -39 -20 -71t-53 -51t-72 -19zM249 461q33 0 60.5 15.5t44 42.5t16.5 60q0 38 -24 64t-65 26q-33 0 -60.5 -15.5t-44 -42t-16.5 -60.5q0 -39 24 -64.5t65 -25.5z" />
    <glyph glyph-name="plusminus" unicode="&#xb1;" horiz-adv-x="579" 
d="M249 80q-4 0 -7.5 3t-2.5 9l48 176h-217q-9 0 -9 9q0 12 12 12h220l48 178q3 10 11 10q5 0 8.5 -3t1.5 -9l-48 -176h216q9 0 9 -9q0 -12 -12 -12h-219l-48 -178q-3 -10 -11 -10zM0 0q-9 0 -9 9q0 12 12 12h456q9 0 9 -9q0 -12 -12 -12h-456z" />
    <glyph glyph-name="uni00B2" unicode="&#xb2;" horiz-adv-x="209" 
d="M80 381q-8 0 -8 8q0 18 23 49t69 68l16 13q44 35 58.5 63.5t14.5 53.5q0 23 -9.5 30.5t-25.5 7.5q-19 0 -31.5 -9.5t-23.5 -29.5q-3 -7 -11 -7q-4 0 -8 3.5t-1 9.5q28 54 80 54q24 0 37.5 -15t13.5 -42q0 -25 -16 -58.5t-60 -71.5l-13 -11q-73 -62 -89 -95h116q8 0 8 -7
q0 -14 -13 -14h-127z" />
    <glyph glyph-name="uni00B3" unicode="&#xb3;" horiz-adv-x="219" 
d="M146 379q-22 0 -41 9t-25 24q-3 8 0 12.5t8 4.5q6 0 10 -6q5 -9 18 -16t31 -7q35 0 53.5 26.5t18.5 60.5q0 50 -43 50q-11 0 -11 10q0 11 13 11q27 0 48.5 27t21.5 61q0 28 -27 28q-31 0 -46 -31q-3 -7 -10 -7q-4 0 -7.5 3.5t-0.5 10.5q8 21 27.5 33t39.5 12q23 0 34 -14
t11 -35q0 -30 -17 -57.5t-41 -39.5q15 -7 22.5 -23t7.5 -38q0 -42 -25 -75.5t-70 -33.5z" />
    <glyph glyph-name="acute" unicode="&#xb4;" horiz-adv-x="192" 
d="M151 531q-7 0 -9 6t2 10l76 98q4 5 9 5q6 0 9.5 -5.5t-1.5 -10.5l-76 -98q-3 -5 -10 -5z" />
    <glyph glyph-name="uni00B5" unicode="&#xb5;" horiz-adv-x="326" 
d="M95 -5q-21 0 -39.5 8.5t-29.5 27.5l-56 -208q-3 -10 -11 -10q-4 0 -7.5 3t-2.5 9l173 642q3 10 11 10q5 0 8.5 -3t1.5 -9l-110 -407q8 -19 24.5 -30.5t38.5 -11.5q28 0 53.5 17.5t43.5 43.5l105 390q3 10 11 10q5 0 8.5 -3t1.5 -9l-113 -421q-6 -23 11 -23q10 0 19 7
q5 3 9 3q8 0 8 -8q0 -6 -6 -11q-15 -12 -32 -12q-18 0 -27.5 11t-3.5 33l1 3q-21 -28 -43 -40t-47 -12z" />
    <glyph glyph-name="paragraph" unicode="&#xb6;" horiz-adv-x="476" 
d="M243 0q-4 0 -7.5 3t-2.5 9l88 328h-45q-78 0 -112 36.5t-34 88.5q0 69 29.5 119.5t77.5 78t103 27.5h84q5 0 8.5 -3t1.5 -9l-180 -668q-3 -10 -11 -10zM343 0q-4 0 -7.5 3t-2.5 9l180 668q3 10 11 10q5 0 8.5 -3t1.5 -9l-180 -668q-3 -10 -11 -10z" />
    <glyph glyph-name="periodcentered" unicode="&#xb7;" horiz-adv-x="183" 
d="M97 251q-4 0 -7.5 3t-2.5 9l22 79q3 10 11 10q5 0 8.5 -3t1.5 -9l-22 -79q-3 -10 -11 -10z" />
    <glyph glyph-name="cedilla" unicode="&#xb8;" horiz-adv-x="234" 
d="M12 -159q-16 0 -29.5 6.5t-18.5 15.5q-4 8 -1 12.5t8 4.5q6 0 10 -5q11 -14 31 -14q21 0 36.5 16t15.5 37q0 11 -5 18.5t-19 7.5q-19 0 -31 -12q-6 -6 -11 -6q-4 0 -7 3t1 10l39 65h22l-25 -43q8 3 15 3q18 0 30 -12t12 -34q0 -29 -21.5 -51t-51.5 -22z" />
    <glyph glyph-name="uni00B9" unicode="&#xb9;" horiz-adv-x="177" 
d="M74 381q-8 0 -8 9q0 12 13 12h48l70 261l-47 -18q-6 -2 -9.5 1.5t-3.5 8.5q0 8 10 11l56 21q9 3 12 3q4 0 7 -2.5t1 -7.5l-75 -278h47q8 0 8 -8q0 -13 -13 -13h-116z" />
    <glyph glyph-name="ordmasculine" unicode="&#xba;" horiz-adv-x="205" 
d="M142 376q-22 0 -35 22t-13 59q0 39 11 80.5t29.5 77.5t41 58t45.5 22t36 -22.5t13 -60.5q0 -39 -11 -80.5t-29.5 -76.5t-41 -57t-46.5 -22zM145 397q18 0 36.5 21t33.5 54t24.5 70t9.5 70q0 29 -7.5 45.5t-22.5 16.5q-18 0 -36.5 -21t-33.5 -53.5t-24.5 -69.5t-9.5 -70
q0 -29 7.5 -46t22.5 -17z" />
    <glyph glyph-name="guillemotright" unicode="&#xbb;" horiz-adv-x="406" 
d="M259 483q4 0 7 -4l112 -180q2 -4 2 -7q0 -5 -2.5 -7.5l-4.5 -4.5l-210 -181q-4 -4 -9 -4t-8.5 6t3.5 12l209 180l-108 174q-3 4 -1 10t10 6zM119 483q4 0 7 -4l112 -180q2 -4 2 -7q0 -5 -2.5 -7.5l-4.5 -4.5l-210 -181q-4 -4 -9 -4t-8.5 6t3.5 12l209 180l-108 174
q-3 4 -1 10t10 6z" />
    <glyph glyph-name="onequarter" unicode="&#xbc;" horiz-adv-x="533" 
d="M95 0q-5 0 -9 3.5t0 10.5l408 668q4 8 11 8q5 0 9 -3.5t0 -10.5l-408 -668q-4 -8 -11 -8zM99 381q-8 0 -8 9q0 12 13 12h48l70 261l-47 -18q-6 -2 -9.5 1.5t-3.5 8.5q0 8 10 11l56 21q9 3 12 3q4 0 7 -2.5t1 -7.5l-75 -278h47q8 0 8 -8q0 -13 -13 -13h-116zM357 0
q-11 0 -9 10l18 68h-93q-9 0 -9 6q0 3 6 11l148 208q5 6 10 6q6 0 10 -4.5t0 -9.5l-140 -196h74l28 105q3 10 12 10q5 0 8 -2.5t1 -7.5l-28 -105h42q8 0 8 -7t-4.5 -10.5t-9.5 -3.5h-42l-18 -68q-2 -10 -12 -10z" />
    <glyph glyph-name="onehalf" unicode="&#xbd;" horiz-adv-x="544" 
d="M95 0q-5 0 -9 3.5t0 10.5l408 668q4 8 11 8q5 0 9 -3.5t0 -10.5l-408 -668q-4 -8 -11 -8zM99 381q-8 0 -8 9q0 12 13 12h48l70 261l-47 -18q-6 -2 -9.5 1.5t-3.5 8.5q0 8 10 11l56 21q9 3 12 3q4 0 7 -2.5t1 -7.5l-75 -278h47q8 0 8 -8q0 -13 -13 -13h-116zM293 0
q-8 0 -8 8q0 18 23 49t69 68l16 13q44 35 58.5 63.5t14.5 53.5q0 23 -9.5 30.5t-25.5 7.5q-19 0 -31.5 -9.5t-23.5 -29.5q-3 -7 -11 -7q-4 0 -8 3.5t-1 9.5q28 54 80 54q24 0 37.5 -15t13.5 -42q0 -25 -16 -58.5t-60 -71.5l-13 -11q-73 -62 -89 -95h116q8 0 8 -7
q0 -14 -13 -14h-127z" />
    <glyph glyph-name="threequarters" unicode="&#xbe;" horiz-adv-x="519" 
d="M100 0q-5 0 -9 3.5t0 10.5l408 668q4 8 11 8q5 0 9 -3.5t0 -10.5l-408 -668q-4 -8 -11 -8zM146 379q-22 0 -41 9t-25 24q-3 8 0 12.5t8 4.5q6 0 10 -6q5 -9 18 -16t31 -7q35 0 53.5 26.5t18.5 60.5q0 50 -43 50q-11 0 -11 10q0 11 13 11q27 0 48.5 27t21.5 61
q0 28 -27 28q-31 0 -46 -31q-3 -7 -10 -7q-4 0 -7.5 3.5t-0.5 10.5q8 21 27.5 33t39.5 12q23 0 34 -14t11 -35q0 -30 -17 -57.5t-41 -39.5q15 -7 22.5 -23t7.5 -38q0 -42 -25 -75.5t-70 -33.5zM363 1q-11 0 -9 10l18 68h-93q-9 0 -9 6q0 3 6 11l148 208q5 6 10 6
q6 0 10 -4.5t0 -9.5l-140 -196h74l28 105q3 10 12 10q5 0 8 -2.5t1 -7.5l-28 -105h42q8 0 8 -7t-4.5 -10.5t-9.5 -3.5h-42l-18 -68q-2 -10 -12 -10z" />
    <glyph glyph-name="questiondown" unicode="&#xbf;" horiz-adv-x="304" 
d="M199 372q7 0 11 -7q7 -14 10 -28t3 -27q0 -26 -12 -50t-28.5 -45t-30.5 -34l-51 -49q-57 -55 -75.5 -99t-18.5 -75q0 -34 16.5 -53t50.5 -19t59 18.5t42 47.5q3 7 11 7q7 0 9.5 -4.5t-0.5 -9.5q-20 -35 -52 -57.5t-72 -22.5q-41 0 -63.5 24.5t-22.5 65.5q0 33 19.5 81.5
t77.5 104.5l55 53q10 10 25.5 28t27.5 40.5t12 46.5q0 21 -11 46q-3 6 -1.5 11.5t9.5 5.5zM253 560q4 0 7.5 -3t2.5 -9l-22 -79q-3 -10 -11 -10q-5 0 -8.5 3t-1.5 9l22 79q3 10 11 10z" />
    <glyph glyph-name="Agrave" unicode="&#xc0;" horiz-adv-x="413" 
d="M-36 0q-6 0 -8.5 4.5t-0.5 8.5l359 669q5 8 12 8q9 0 9 -8l2 -669q0 -4 -2 -8.5t-10 -4.5q-9 0 -9 8v261h-200l-140 -261q-5 -8 -12 -8zM127 290h189l-1 351zM338 731q-7 0 -10 8l-33 75q-3 8 0.5 12t7.5 4q7 0 10 -7l33 -75q4 -8 0.5 -12.5t-8.5 -4.5z" />
    <glyph glyph-name="Aacute" unicode="&#xc1;" horiz-adv-x="413" 
d="M-36 0q-6 0 -8.5 4.5t-0.5 8.5l359 669q5 8 12 8q9 0 9 -8l2 -669q0 -4 -2 -8.5t-10 -4.5q-9 0 -9 8v261h-200l-140 -261q-5 -8 -12 -8zM127 290h189l-1 351zM335 730q-7 0 -9 6t2 10l63 79q4 5 9 5q6 0 9.5 -5.5t-1.5 -10.5l-63 -79q-3 -5 -10 -5z" />
    <glyph glyph-name="Acircumflex" unicode="&#xc2;" horiz-adv-x="413" 
d="M-36 0q-6 0 -8.5 4.5t-0.5 8.5l359 669q5 8 12 8q9 0 9 -8l2 -669q0 -4 -2 -8.5t-10 -4.5q-9 0 -9 8v261h-200l-140 -261q-5 -8 -12 -8zM127 290h189l-1 351zM281 730q-6 0 -9 5.5t3 11.5l80 78q5 5 10 5q6 0 8 -5l37 -80q3 -7 -0.5 -11t-8.5 -4q-7 0 -9 6l-31 67
l-69 -68q-5 -5 -11 -5z" />
    <glyph glyph-name="Atilde" unicode="&#xc3;" horiz-adv-x="413" 
d="M-36 0q-6 0 -8.5 4.5t-0.5 8.5l359 669q5 8 12 8q9 0 9 -8l2 -669q0 -4 -2 -8.5t-10 -4.5q-9 0 -9 8v261h-200l-140 -261q-5 -8 -12 -8zM127 290h189l-1 351zM390 752q-19 0 -31.5 9t-22.5 18t-24 9q-22 0 -34 -23q-5 -11 -11 -11q-10 0 -10 9q0 14 16.5 29.5t41.5 15.5
q20 0 32 -9t22 -18t24 -9q23 0 34 23q3 6 5 8.5t7 2.5q9 0 9 -9q-1 -13 -16.5 -29t-41.5 -16z" />
    <glyph glyph-name="Adieresis" unicode="&#xc4;" horiz-adv-x="413" 
d="M-36 0q-6 0 -8.5 4.5t-0.5 8.5l359 669q5 8 12 8q9 0 9 -8l2 -669q0 -4 -2 -8.5t-10 -4.5q-9 0 -9 8v261h-200l-140 -261q-5 -8 -12 -8zM127 290h189l-1 351zM296 730q-4 0 -7.5 3t-2.5 9l21 78q3 10 11 10q5 0 8.5 -3t1.5 -9l-21 -78q-3 -10 -11 -10zM386 730
q-4 0 -7.5 3t-2.5 9l21 78q3 10 11 10q5 0 8.5 -3t1.5 -9l-21 -78q-3 -10 -11 -10z" />
    <glyph glyph-name="Aring" unicode="&#xc5;" horiz-adv-x="413" 
d="M-36 0q-6 0 -8.5 4.5t-0.5 8.5l359 669q5 8 12 8q9 0 9 -8l2 -669q0 -4 -2 -8.5t-10 -4.5q-9 0 -9 8v261h-200l-140 -261q-5 -8 -12 -8zM127 290h189l-1 351zM348 725q-24 0 -38.5 14t-14.5 36q0 25 17 42.5t44 17.5q24 0 38.5 -13.5t14.5 -36.5q0 -25 -17 -42.5
t-44 -17.5zM349 743q18 0 29.5 12.5t11.5 28.5q0 15 -9.5 23.5t-25.5 8.5q-19 0 -30 -12t-11 -29q0 -32 35 -32z" />
    <glyph glyph-name="AE" unicode="&#xc6;" horiz-adv-x="539" 
d="M-36 0q-5 0 -8.5 4.5t0.5 11.5l459 669q4 5 10 5h188q9 0 9 -9q0 -12 -12 -12h-179l-77 -287h167q9 0 9 -9q0 -12 -12 -12h-170l-91 -340h177q9 0 9 -9q0 -12 -12 -12h-190q-4 0 -6.5 3t-1.5 7l70 259h-147l-179 -261q-5 -8 -13 -8zM378 593l-208 -303h138l95 353z" />
    <glyph glyph-name="Ccedilla" unicode="&#xc7;" horiz-adv-x="374" 
d="M174 -5q-64 0 -95 51.5t-31 130.5q0 77 17.5 152.5t47.5 141.5t69.5 116.5t84 79t90.5 28.5q23 0 48.5 -9t41.5 -26q3 -3 3 -7q0 -5 -4 -9t-9 -4t-9 4q-13 15 -33 22.5t-40 7.5q-41 0 -81.5 -28t-77.5 -76.5t-65 -111.5t-44.5 -133.5t-16.5 -141.5t25.5 -119t80.5 -48
q20 0 46 7.5t48 23.5q5 3 8 3q8 0 8 -8q0 -7 -8 -12q-23 -17 -51.5 -26t-52.5 -9zM138 -159q-16 0 -29.5 6.5t-18.5 15.5q-4 8 -1 12.5t8 4.5q6 0 10 -5q11 -14 31 -14q21 0 36.5 16t15.5 37q0 11 -5 18.5t-19 7.5q-19 0 -31 -12q-6 -6 -11 -6q-4 0 -7 3t1 10l39 65h22
l-25 -43q8 3 15 3q18 0 30 -12t12 -34q0 -29 -21.5 -51t-51.5 -22z" />
    <glyph glyph-name="Egrave" unicode="&#xc8;" horiz-adv-x="336" 
d="M192 0q-86 0 -125 44.5t-39 113.5q0 48 16 93t43 81t61 56q-13 34 -13 82q0 58 26 108t78 81t130 31h32q9 0 9 -9q0 -12 -12 -12h-35q-71 0 -116.5 -28t-67.5 -74t-22 -100q0 -42 10 -69q26 11 52 11q29 0 51.5 -13t22.5 -35q0 -17 -15.5 -27t-38.5 -10q-55 0 -82 46
q-31 -18 -55 -50.5t-38 -74.5t-14 -87q0 -61 32.5 -99t115.5 -38h33q9 0 9 -9q0 -12 -12 -12h-36zM219 389q-22 0 -44 -9q21 -36 66 -36q13 0 22 4.5t9 13.5q0 13 -16.5 20t-36.5 7zM329 731q-7 0 -10 8l-33 75q-3 8 0.5 12t7.5 4q7 0 10 -7l33 -75q4 -8 0.5 -12.5
t-8.5 -4.5z" />
    <glyph glyph-name="Eacute" unicode="&#xc9;" horiz-adv-x="336" 
d="M192 0q-86 0 -125 44.5t-39 113.5q0 48 16 93t43 81t61 56q-13 34 -13 82q0 58 26 108t78 81t130 31h32q9 0 9 -9q0 -12 -12 -12h-35q-71 0 -116.5 -28t-67.5 -74t-22 -100q0 -42 10 -69q26 11 52 11q29 0 51.5 -13t22.5 -35q0 -17 -15.5 -27t-38.5 -10q-55 0 -82 46
q-31 -18 -55 -50.5t-38 -74.5t-14 -87q0 -61 32.5 -99t115.5 -38h33q9 0 9 -9q0 -12 -12 -12h-36zM219 389q-22 0 -44 -9q21 -36 66 -36q13 0 22 4.5t9 13.5q0 13 -16.5 20t-36.5 7zM326 730q-7 0 -9 6t2 10l63 79q4 5 9 5q6 0 9.5 -5.5t-1.5 -10.5l-63 -79q-3 -5 -10 -5z
" />
    <glyph glyph-name="Ecircumflex" unicode="&#xca;" horiz-adv-x="336" 
d="M192 0q-86 0 -125 44.5t-39 113.5q0 48 16 93t43 81t61 56q-13 34 -13 82q0 58 26 108t78 81t130 31h32q9 0 9 -9q0 -12 -12 -12h-35q-71 0 -116.5 -28t-67.5 -74t-22 -100q0 -42 10 -69q26 11 52 11q29 0 51.5 -13t22.5 -35q0 -17 -15.5 -27t-38.5 -10q-55 0 -82 46
q-31 -18 -55 -50.5t-38 -74.5t-14 -87q0 -61 32.5 -99t115.5 -38h33q9 0 9 -9q0 -12 -12 -12h-36zM219 389q-22 0 -44 -9q21 -36 66 -36q13 0 22 4.5t9 13.5q0 13 -16.5 20t-36.5 7zM272 730q-6 0 -9 5.5t3 11.5l80 78q5 5 10 5q6 0 8 -5l37 -80q3 -7 -0.5 -11t-8.5 -4
q-7 0 -9 6l-31 67l-69 -68q-5 -5 -11 -5z" />
    <glyph glyph-name="Edieresis" unicode="&#xcb;" horiz-adv-x="336" 
d="M192 0q-86 0 -125 44.5t-39 113.5q0 48 16 93t43 81t61 56q-13 34 -13 82q0 58 26 108t78 81t130 31h32q9 0 9 -9q0 -12 -12 -12h-35q-71 0 -116.5 -28t-67.5 -74t-22 -100q0 -42 10 -69q26 11 52 11q29 0 51.5 -13t22.5 -35q0 -17 -15.5 -27t-38.5 -10q-55 0 -82 46
q-31 -18 -55 -50.5t-38 -74.5t-14 -87q0 -61 32.5 -99t115.5 -38h33q9 0 9 -9q0 -12 -12 -12h-36zM219 389q-22 0 -44 -9q21 -36 66 -36q13 0 22 4.5t9 13.5q0 13 -16.5 20t-36.5 7zM287 730q-4 0 -7.5 3t-2.5 9l21 78q3 10 11 10q5 0 8.5 -3t1.5 -9l-21 -78q-3 -10 -11 -10
zM377 730q-4 0 -7.5 3t-2.5 9l21 78q3 10 11 10q5 0 8.5 -3t1.5 -9l-21 -78q-3 -10 -11 -10z" />
    <glyph glyph-name="Igrave" unicode="&#xcc;" horiz-adv-x="142" 
d="M9 0q-4 0 -7.5 3t-2.5 9l180 668q3 10 11 10q5 0 8.5 -3t1.5 -9l-180 -668q-3 -10 -11 -10zM202 731q-7 0 -10 8l-33 75q-3 8 0.5 12t7.5 4q7 0 10 -7l33 -75q4 -8 0.5 -12.5t-8.5 -4.5z" />
    <glyph glyph-name="Iacute" unicode="&#xcd;" horiz-adv-x="142" 
d="M9 0q-4 0 -7.5 3t-2.5 9l180 668q3 10 11 10q5 0 8.5 -3t1.5 -9l-180 -668q-3 -10 -11 -10zM199 730q-7 0 -9 6t2 10l63 79q4 5 9 5q6 0 9.5 -5.5t-1.5 -10.5l-63 -79q-3 -5 -10 -5z" />
    <glyph glyph-name="Icircumflex" unicode="&#xce;" horiz-adv-x="142" 
d="M9 0q-4 0 -7.5 3t-2.5 9l180 668q3 10 11 10q5 0 8.5 -3t1.5 -9l-180 -668q-3 -10 -11 -10zM145 730q-6 0 -9 5.5t3 11.5l80 78q5 5 10 5q6 0 8 -5l37 -80q3 -7 -0.5 -11t-8.5 -4q-7 0 -9 6l-31 67l-69 -68q-5 -5 -11 -5z" />
    <glyph glyph-name="Idieresis" unicode="&#xcf;" horiz-adv-x="142" 
d="M9 0q-4 0 -7.5 3t-2.5 9l180 668q3 10 11 10q5 0 8.5 -3t1.5 -9l-180 -668q-3 -10 -11 -10zM160 730q-4 0 -7.5 3t-2.5 9l21 78q3 10 11 10q5 0 8.5 -3t1.5 -9l-21 -78q-3 -10 -11 -10zM250 730q-4 0 -7.5 3t-2.5 9l21 78q3 10 11 10q5 0 8.5 -3t1.5 -9l-21 -78
q-3 -10 -11 -10z" />
    <glyph glyph-name="Eth" unicode="&#xd0;" horiz-adv-x="411" 
d="M9 0q-4 0 -7.5 3t-2.5 9l83 307h-38q-9 0 -9 9q0 12 12 12h40l92 340q3 10 11 10h104q65 0 95.5 -51t30.5 -138q0 -71 -17 -143t-46.5 -136t-67.5 -114t-80.5 -79t-85.5 -29h-114zM209 319h-106l-80 -298h106q37 0 75 28t72.5 77t61.5 111t43 131t16 137q0 75 -24 119.5
t-81 44.5h-94l-89 -329h103q9 0 9 -9q0 -12 -12 -12z" />
    <glyph glyph-name="Ntilde" unicode="&#xd1;" horiz-adv-x="423" 
d="M9 0q-4 0 -7.5 3t-2.5 9l180 668q3 10 11 10q9 0 10 -8l92 -624l168 622q3 10 11 10q5 0 8.5 -3t1.5 -9l-180 -668q-3 -10 -11 -10q-10 0 -11 11l-92 621l-167 -622q-3 -10 -11 -10zM395 752q-19 0 -31.5 9t-22.5 18t-24 9q-22 0 -34 -23q-5 -11 -11 -11q-10 0 -10 9
q0 14 16.5 29.5t41.5 15.5q20 0 32 -9t22 -18t24 -9q23 0 34 23q3 6 5 8.5t7 2.5q9 0 9 -9q-1 -13 -16.5 -29t-41.5 -16z" />
    <glyph glyph-name="Ograve" unicode="&#xd2;" horiz-adv-x="462" 
d="M173 -5q-52 0 -88.5 44.5t-36.5 145.5q0 67 16 138.5t44.5 137.5t66 119t81.5 84t91 31q51 0 87.5 -44.5t36.5 -145.5q0 -67 -16 -138.5t-44.5 -137.5t-66 -119t-81 -84t-90.5 -31zM175 16q42 0 82 30.5t75 81.5t61 115t41 131.5t15 130.5q0 94 -30.5 131.5t-73.5 37.5
q-42 0 -82.5 -30.5t-75 -81.5t-61 -115t-41.5 -131.5t-15 -130.5q0 -94 31 -131.5t74 -37.5zM362 731q-7 0 -10 8l-33 75q-3 8 0.5 12t7.5 4q7 0 10 -7l33 -75q4 -8 0.5 -12.5t-8.5 -4.5z" />
    <glyph glyph-name="Oacute" unicode="&#xd3;" horiz-adv-x="462" 
d="M173 -5q-52 0 -88.5 44.5t-36.5 145.5q0 67 16 138.5t44.5 137.5t66 119t81.5 84t91 31q51 0 87.5 -44.5t36.5 -145.5q0 -67 -16 -138.5t-44.5 -137.5t-66 -119t-81 -84t-90.5 -31zM175 16q42 0 82 30.5t75 81.5t61 115t41 131.5t15 130.5q0 94 -30.5 131.5t-73.5 37.5
q-42 0 -82.5 -30.5t-75 -81.5t-61 -115t-41.5 -131.5t-15 -130.5q0 -94 31 -131.5t74 -37.5zM359 730q-7 0 -9 6t2 10l63 79q4 5 9 5q6 0 9.5 -5.5t-1.5 -10.5l-63 -79q-3 -5 -10 -5z" />
    <glyph glyph-name="Ocircumflex" unicode="&#xd4;" horiz-adv-x="462" 
d="M173 -5q-52 0 -88.5 44.5t-36.5 145.5q0 67 16 138.5t44.5 137.5t66 119t81.5 84t91 31q51 0 87.5 -44.5t36.5 -145.5q0 -67 -16 -138.5t-44.5 -137.5t-66 -119t-81 -84t-90.5 -31zM175 16q42 0 82 30.5t75 81.5t61 115t41 131.5t15 130.5q0 94 -30.5 131.5t-73.5 37.5
q-42 0 -82.5 -30.5t-75 -81.5t-61 -115t-41.5 -131.5t-15 -130.5q0 -94 31 -131.5t74 -37.5zM305 730q-6 0 -9 5.5t3 11.5l80 78q5 5 10 5q6 0 8 -5l37 -80q3 -7 -0.5 -11t-8.5 -4q-7 0 -9 6l-31 67l-69 -68q-5 -5 -11 -5z" />
    <glyph glyph-name="Otilde" unicode="&#xd5;" horiz-adv-x="462" 
d="M173 -5q-52 0 -88.5 44.5t-36.5 145.5q0 67 16 138.5t44.5 137.5t66 119t81.5 84t91 31q51 0 87.5 -44.5t36.5 -145.5q0 -67 -16 -138.5t-44.5 -137.5t-66 -119t-81 -84t-90.5 -31zM175 16q42 0 82 30.5t75 81.5t61 115t41 131.5t15 130.5q0 94 -30.5 131.5t-73.5 37.5
q-42 0 -82.5 -30.5t-75 -81.5t-61 -115t-41.5 -131.5t-15 -130.5q0 -94 31 -131.5t74 -37.5zM414 752q-19 0 -31.5 9t-22.5 18t-24 9q-22 0 -34 -23q-5 -11 -11 -11q-10 0 -10 9q0 14 16.5 29.5t41.5 15.5q20 0 32 -9t22 -18t24 -9q23 0 34 23q3 6 5 8.5t7 2.5q9 0 9 -9
q-1 -13 -16.5 -29t-41.5 -16z" />
    <glyph glyph-name="Odieresis" unicode="&#xd6;" horiz-adv-x="462" 
d="M173 -5q-52 0 -88.5 44.5t-36.5 145.5q0 67 16 138.5t44.5 137.5t66 119t81.5 84t91 31q51 0 87.5 -44.5t36.5 -145.5q0 -67 -16 -138.5t-44.5 -137.5t-66 -119t-81 -84t-90.5 -31zM175 16q42 0 82 30.5t75 81.5t61 115t41 131.5t15 130.5q0 94 -30.5 131.5t-73.5 37.5
q-42 0 -82.5 -30.5t-75 -81.5t-61 -115t-41.5 -131.5t-15 -130.5q0 -94 31 -131.5t74 -37.5zM320 730q-4 0 -7.5 3t-2.5 9l21 78q3 10 11 10q5 0 8.5 -3t1.5 -9l-21 -78q-3 -10 -11 -10zM410 730q-4 0 -7.5 3t-2.5 9l21 78q3 10 11 10q5 0 8.5 -3t1.5 -9l-21 -78
q-3 -10 -11 -10z" />
    <glyph glyph-name="multiply" unicode="&#xd7;" horiz-adv-x="447" 
d="M19 65q-7 0 -9 6.5t5 12.5l194 155l-113 155q-4 7 0 12t9 5q4 0 8 -5l112 -154l195 155q5 4 11 4q8 0 10 -6.5t-6 -12.5l-197 -157l111 -153q5 -7 0.5 -12t-9.5 -5q-4 0 -8 5l-111 152l-191 -153q-5 -4 -11 -4z" />
    <glyph glyph-name="Oslash" unicode="&#xd8;" horiz-adv-x="462" 
d="M36 -6q-5 0 -9 4t0 10l40 62q-9 22 -14 50.5t-5 64.5q0 67 16 138.5t44.5 137.5t66 119t81.5 84t91 31q28 0 52 -13t41 -40l30 45q5 8 11 8q5 0 9 -4t0 -10l-39 -60q10 -21 15 -50t5 -66q0 -67 -16 -138.5t-44.5 -137.5t-66 -119t-81 -84t-90.5 -31q-29 0 -53.5 13
t-41.5 41l-31 -47q-5 -8 -11 -8zM70 185q0 -55 12 -93l345 530q-14 28 -35.5 40t-46.5 12q-42 0 -82.5 -30.5t-75 -81.5t-61 -115t-41.5 -131.5t-15 -130.5zM175 16q42 0 82 30.5t75 81.5t61 115t41 131.5t15 130.5q0 56 -12 94l-346 -529q15 -29 36.5 -41.5t47.5 -12.5z
" />
    <glyph glyph-name="Ugrave" unicode="&#xd9;" horiz-adv-x="413" 
d="M159 0q-78 0 -114 43t-14 125l138 512q3 10 11 10q5 0 8.5 -3t1.5 -9l-140 -521q-17 -65 12.5 -101t96.5 -36t104.5 36.5t56.5 104.5l140 519q3 10 11 10q5 0 8.5 -3t1.5 -9l-139 -516q-21 -78 -63 -120t-120 -42zM338 731q-7 0 -10 8l-33 75q-3 8 0.5 12t7.5 4
q7 0 10 -7l33 -75q4 -8 0.5 -12.5t-8.5 -4.5z" />
    <glyph glyph-name="Uacute" unicode="&#xda;" horiz-adv-x="413" 
d="M159 0q-78 0 -114 43t-14 125l138 512q3 10 11 10q5 0 8.5 -3t1.5 -9l-140 -521q-17 -65 12.5 -101t96.5 -36t104.5 36.5t56.5 104.5l140 519q3 10 11 10q5 0 8.5 -3t1.5 -9l-139 -516q-21 -78 -63 -120t-120 -42zM335 730q-7 0 -9 6t2 10l63 79q4 5 9 5q6 0 9.5 -5.5
t-1.5 -10.5l-63 -79q-3 -5 -10 -5z" />
    <glyph glyph-name="Ucircumflex" unicode="&#xdb;" horiz-adv-x="413" 
d="M159 0q-78 0 -114 43t-14 125l138 512q3 10 11 10q5 0 8.5 -3t1.5 -9l-140 -521q-17 -65 12.5 -101t96.5 -36t104.5 36.5t56.5 104.5l140 519q3 10 11 10q5 0 8.5 -3t1.5 -9l-139 -516q-21 -78 -63 -120t-120 -42zM281 730q-6 0 -9 5.5t3 11.5l80 78q5 5 10 5q6 0 8 -5
l37 -80q3 -7 -0.5 -11t-8.5 -4q-7 0 -9 6l-31 67l-69 -68q-5 -5 -11 -5z" />
    <glyph glyph-name="Udieresis" unicode="&#xdc;" horiz-adv-x="413" 
d="M159 0q-78 0 -114 43t-14 125l138 512q3 10 11 10q5 0 8.5 -3t1.5 -9l-140 -521q-17 -65 12.5 -101t96.5 -36t104.5 36.5t56.5 104.5l140 519q3 10 11 10q5 0 8.5 -3t1.5 -9l-139 -516q-21 -78 -63 -120t-120 -42zM296 730q-4 0 -7.5 3t-2.5 9l21 78q3 10 11 10
q5 0 8.5 -3t1.5 -9l-21 -78q-3 -10 -11 -10zM386 730q-4 0 -7.5 3t-2.5 9l21 78q3 10 11 10q5 0 8.5 -3t1.5 -9l-21 -78q-3 -10 -11 -10z" />
    <glyph glyph-name="Yacute" unicode="&#xdd;" horiz-adv-x="371" 
d="M124 0q-4 0 -7.5 3t-2.5 9l81 304l-66 360q-1 5 1 9.5t9 4.5q8 0 10 -10l63 -338l244 339q6 9 13 9q6 0 9.5 -4.5t-1.5 -11.5l-261 -363l-81 -301q-3 -10 -11 -10zM314 730q-7 0 -9 6t2 10l63 79q4 5 9 5q6 0 9.5 -5.5t-1.5 -10.5l-63 -79q-3 -5 -10 -5z" />
    <glyph glyph-name="Thorn" unicode="&#xde;" horiz-adv-x="351" 
d="M9 0q-4 0 -7.5 3t-2.5 9l180 668q3 10 11 10q5 0 8.5 -3t1.5 -9l-32 -118h79q62 0 89.5 -35t27.5 -93q0 -63 -28 -117t-77.5 -86.5t-113.5 -32.5q-19 0 -37 3t-35 8l-53 -197q-3 -10 -11 -10zM241 539h-78l-85 -312q38 -11 70 -11q58 0 101.5 29.5t68 79t24.5 108.5
q0 47 -20.5 76.5t-80.5 29.5z" />
    <glyph glyph-name="germandbls" unicode="&#xdf;" horiz-adv-x="334" 
d="M83 -5q-11 0 -20 2t-15 4q-10 3 -10 11q0 5 4 8.5t10 0.5q3 -1 10 -3t18 -2q39 0 72.5 24.5t58.5 65.5t39 90.5t14 98.5q0 44 -12 71q-32 -29 -63 -29q-18 0 -31 10t-13 28q0 22 17.5 35.5t40.5 13.5q32 0 53 -24q28 35 48.5 89t20.5 110q0 33 -11 54t-44 21
q-40 0 -65 -33.5t-42 -98.5l-143 -532q-3 -10 -14 -10q-10 0 -7 10l144 538q21 79 52.5 113t75.5 34q41 0 58.5 -26t17.5 -67q0 -65 -23 -124t-56 -96q18 -34 18 -87q0 -54 -16 -107t-44 -97t-64.5 -70t-78.5 -26zM168 376q0 -10 6.5 -14t14.5 -4q25 0 52 26q-15 19 -39 19
q-13 0 -23.5 -6.5t-10.5 -20.5z" />
    <glyph glyph-name="agrave" unicode="&#xe0;" horiz-adv-x="324" 
d="M62 -5q-23 0 -36.5 20.5t-13.5 58.5q0 50 13 106.5t34.5 110t48.5 96.5t55.5 69t53.5 26t39 -25t14 -70q0 -13 -1 -26.5t-4 -29.5q-2 -9 -10 -9q-12 0 -10 12q2 14 3 27t1 25q0 35 -9 55t-26 20q-20 0 -44.5 -25.5t-49 -68t-44.5 -93.5t-32 -102t-12 -94q0 -62 30 -62
q14 0 31 11t33 29v13q0 48 12 93t31.5 73.5t40.5 28.5q24 0 24 -30q0 -26 -12 -59t-32 -66.5t-43 -60.5q3 -27 18 -27q12 0 29.5 18t36 47.5t32.5 62.5q4 10 12 10q5 0 8 -4.5t1 -9.5q-28 -66 -61 -105.5t-59 -39.5q-25 0 -34 31q-17 -17 -34.5 -26.5t-33.5 -9.5zM207 243
q-12 0 -25 -25t-23 -62.5t-12 -74.5q27 36 46.5 79.5t19.5 74.5q0 8 -6 8zM240 532q-7 0 -10 8l-41 94q-3 8 0.5 12t7.5 4q7 0 10 -7l41 -94q4 -8 0.5 -12.5t-8.5 -4.5z" />
    <glyph glyph-name="aacute" unicode="&#xe1;" horiz-adv-x="324" 
d="M62 -5q-23 0 -36.5 20.5t-13.5 58.5q0 50 13 106.5t34.5 110t48.5 96.5t55.5 69t53.5 26t39 -25t14 -70q0 -13 -1 -26.5t-4 -29.5q-2 -9 -10 -9q-12 0 -10 12q2 14 3 27t1 25q0 35 -9 55t-26 20q-20 0 -44.5 -25.5t-49 -68t-44.5 -93.5t-32 -102t-12 -94q0 -62 30 -62
q14 0 31 11t33 29v13q0 48 12 93t31.5 73.5t40.5 28.5q24 0 24 -30q0 -26 -12 -59t-32 -66.5t-43 -60.5q3 -27 18 -27q12 0 29.5 18t36 47.5t32.5 62.5q4 10 12 10q5 0 8 -4.5t1 -9.5q-28 -66 -61 -105.5t-59 -39.5q-25 0 -34 31q-17 -17 -34.5 -26.5t-33.5 -9.5zM207 243
q-12 0 -25 -25t-23 -62.5t-12 -74.5q27 36 46.5 79.5t19.5 74.5q0 8 -6 8zM220 531q-7 0 -9 6t2 10l76 98q4 5 9 5q6 0 9.5 -5.5t-1.5 -10.5l-76 -98q-3 -5 -10 -5z" />
    <glyph glyph-name="acircumflex" unicode="&#xe2;" horiz-adv-x="324" 
d="M62 -5q-23 0 -36.5 20.5t-13.5 58.5q0 50 13 106.5t34.5 110t48.5 96.5t55.5 69t53.5 26t39 -25t14 -70q0 -13 -1 -26.5t-4 -29.5q-2 -9 -10 -9q-12 0 -10 12q2 14 3 27t1 25q0 35 -9 55t-26 20q-20 0 -44.5 -25.5t-49 -68t-44.5 -93.5t-32 -102t-12 -94q0 -62 30 -62
q14 0 31 11t33 29v13q0 48 12 93t31.5 73.5t40.5 28.5q24 0 24 -30q0 -26 -12 -59t-32 -66.5t-43 -60.5q3 -27 18 -27q12 0 29.5 18t36 47.5t32.5 62.5q4 10 12 10q5 0 8 -4.5t1 -9.5q-28 -66 -61 -105.5t-59 -39.5q-25 0 -34 31q-17 -17 -34.5 -26.5t-33.5 -9.5zM207 243
q-12 0 -25 -25t-23 -62.5t-12 -74.5q27 36 46.5 79.5t19.5 74.5q0 8 -6 8zM162 532q-6 0 -9 5.5t3 11.5l93 96q5 5 10 5q6 0 8 -5l43 -98q3 -7 -0.5 -11t-8.5 -4q-7 0 -9 6l-37 85l-82 -86q-5 -5 -11 -5z" />
    <glyph glyph-name="atilde" unicode="&#xe3;" horiz-adv-x="324" 
d="M62 -5q-23 0 -36.5 20.5t-13.5 58.5q0 50 13 106.5t34.5 110t48.5 96.5t55.5 69t53.5 26t39 -25t14 -70q0 -13 -1 -26.5t-4 -29.5q-2 -9 -10 -9q-12 0 -10 12q2 14 3 27t1 25q0 35 -9 55t-26 20q-20 0 -44.5 -25.5t-49 -68t-44.5 -93.5t-32 -102t-12 -94q0 -62 30 -62
q14 0 31 11t33 29v13q0 48 12 93t31.5 73.5t40.5 28.5q24 0 24 -30q0 -26 -12 -59t-32 -66.5t-43 -60.5q3 -27 18 -27q12 0 29.5 18t36 47.5t32.5 62.5q4 10 12 10q5 0 8 -4.5t1 -9.5q-28 -66 -61 -105.5t-59 -39.5q-25 0 -34 31q-17 -17 -34.5 -26.5t-33.5 -9.5zM207 243
q-12 0 -25 -25t-23 -62.5t-12 -74.5q27 36 46.5 79.5t19.5 74.5q0 8 -6 8zM282 560q-19 0 -31.5 10.5t-22.5 20.5t-24 10q-23 0 -34 -28q-4 -11 -11 -11q-10 0 -10 9q0 15 16.5 32.5t41.5 17.5q20 0 32 -10t22 -20.5t24 -10.5q11 0 20.5 7.5t13.5 20.5q4 11 12 11q9 0 9 -9
q-1 -15 -16.5 -32.5t-41.5 -17.5z" />
    <glyph glyph-name="adieresis" unicode="&#xe4;" horiz-adv-x="324" 
d="M62 -5q-23 0 -36.5 20.5t-13.5 58.5q0 50 13 106.5t34.5 110t48.5 96.5t55.5 69t53.5 26t39 -25t14 -70q0 -13 -1 -26.5t-4 -29.5q-2 -9 -10 -9q-12 0 -10 12q2 14 3 27t1 25q0 35 -9 55t-26 20q-20 0 -44.5 -25.5t-49 -68t-44.5 -93.5t-32 -102t-12 -94q0 -62 30 -62
q14 0 31 11t33 29v13q0 48 12 93t31.5 73.5t40.5 28.5q24 0 24 -30q0 -26 -12 -59t-32 -66.5t-43 -60.5q3 -27 18 -27q12 0 29.5 18t36 47.5t32.5 62.5q4 10 12 10q5 0 8 -4.5t1 -9.5q-28 -66 -61 -105.5t-59 -39.5q-25 0 -34 31q-17 -17 -34.5 -26.5t-33.5 -9.5zM207 243
q-12 0 -25 -25t-23 -62.5t-12 -74.5q27 36 46.5 79.5t19.5 74.5q0 8 -6 8zM180 531q-4 0 -7.5 3t-2.5 9l27 97q3 10 11 10q5 0 8.5 -3t1.5 -9l-27 -97q-3 -10 -11 -10zM280 531q-4 0 -7.5 3t-2.5 9l27 97q3 10 11 10q5 0 8.5 -3t1.5 -9l-27 -97q-3 -10 -11 -10z" />
    <glyph glyph-name="aring" unicode="&#xe5;" horiz-adv-x="324" 
d="M62 -5q-23 0 -36.5 20.5t-13.5 58.5q0 50 13 106.5t34.5 110t48.5 96.5t55.5 69t53.5 26t39 -25t14 -70q0 -13 -1 -26.5t-4 -29.5q-2 -9 -10 -9q-12 0 -10 12q2 14 3 27t1 25q0 35 -9 55t-26 20q-20 0 -44.5 -25.5t-49 -68t-44.5 -93.5t-32 -102t-12 -94q0 -62 30 -62
q14 0 31 11t33 29v13q0 48 12 93t31.5 73.5t40.5 28.5q24 0 24 -30q0 -26 -12 -59t-32 -66.5t-43 -60.5q3 -27 18 -27q12 0 29.5 18t36 47.5t32.5 62.5q4 10 12 10q5 0 8 -4.5t1 -9.5q-28 -66 -61 -105.5t-59 -39.5q-25 0 -34 31q-17 -17 -34.5 -26.5t-33.5 -9.5zM207 243
q-12 0 -25 -25t-23 -62.5t-12 -74.5q27 36 46.5 79.5t19.5 74.5q0 8 -6 8zM240 531q-25 0 -41 15t-16 39q0 27 18.5 46t47.5 19q26 0 41.5 -15t15.5 -39q0 -26 -18.5 -45.5t-47.5 -19.5zM241 551q20 0 32 13.5t12 30.5t-10 26t-27 9q-21 0 -32.5 -13t-11.5 -32q0 -34 37 -34
z" />
    <glyph glyph-name="ae" unicode="&#xe6;" horiz-adv-x="443" 
d="M61 -5q-21 0 -34 20.5t-13 58.5q0 50 12 106.5t32 110t45.5 96.5t53 69t53.5 26q20 0 32.5 -22.5t6.5 -85.5l25 93q3 10 11 10q5 0 8.5 -3t1.5 -9l-24 -90q34 58 65.5 82.5t55.5 24.5q36 0 36 -43q0 -36 -25.5 -73t-69.5 -69.5t-98 -54.5l-16 -58q-5 -20 -8.5 -45.5
t-3.5 -44.5q0 -43 14.5 -60.5t34.5 -17.5q32 0 65 38t58 99q3 6 9 6q5 0 8.5 -4.5t1.5 -10.5q-29 -70 -63 -109.5t-78 -39.5q-32 0 -51.5 24t-19.5 76q0 20 3 44q-19 -38 -40.5 -71t-43.5 -53t-44 -20zM34 78q0 -62 28 -62q21 0 44.5 26t47 65.5t44.5 79.5l32 119
q7 62 6 95.5t-9 46.5t-20 13q-21 0 -44.5 -25.5t-46 -68t-41.5 -93.5t-30 -102t-11 -94zM391 461q-24 0 -65 -40t-73 -113l-11 -39q43 19 80.5 46.5t61 59.5t23.5 64q0 22 -16 22z" />
    <glyph glyph-name="ccedilla" unicode="&#xe7;" horiz-adv-x="283" 
d="M96 -5q-32 0 -52 31t-20 93q0 46 10.5 96t29 97.5t42.5 86t52.5 61t58.5 22.5q37 0 54 -25t20 -67q2 -17 -12 -17q-10 0 -10 10q-1 32 -14 55t-39 23q-25 0 -49.5 -22t-46.5 -58.5t-38.5 -81.5t-26 -91.5t-9.5 -88.5q0 -53 14 -78t37 -25q26 0 50 22t45 58q5 9 12 9
t9.5 -5.5t-2.5 -13.5q-25 -43 -55 -67t-60 -24zM59 -159q-16 0 -29.5 6.5t-18.5 15.5q-4 8 -1 12.5t8 4.5q6 0 10 -5q11 -14 31 -14q21 0 36.5 16t15.5 37q0 11 -5 18.5t-19 7.5q-19 0 -31 -12q-6 -6 -11 -6q-4 0 -7 3t1 10l39 65h22l-25 -43q8 3 15 3q18 0 30 -12t12 -34
q0 -29 -21.5 -51t-51.5 -22z" />
    <glyph glyph-name="egrave" unicode="&#xe8;" horiz-adv-x="273" 
d="M96 -5q-27 0 -43.5 24t-16.5 76q0 35 7.5 76t20.5 82q-13 -6 -26 -10q-5 -1 -9.5 2.5t-4.5 8.5q0 8 8 10q19 5 42 16q19 54 44.5 100t53.5 74t54 28q32 0 32 -35q0 -30 -23.5 -63.5t-61.5 -64.5t-80 -53q-16 -45 -26 -90t-10 -82q0 -43 11 -60.5t28 -17.5q28 0 58 38
t55 99q3 6 9 6q5 0 8.5 -4.5t1.5 -10.5q-29 -70 -62.5 -109.5t-69.5 -39.5zM226 461q-19 0 -40.5 -22.5t-42.5 -59.5t-39 -82q33 20 63.5 45.5t50 53t19.5 51.5q0 14 -11 14zM242 532q-7 0 -10 8l-41 94q-3 8 0.5 12t7.5 4q7 0 10 -7l41 -94q4 -8 0.5 -12.5t-8.5 -4.5z" />
    <glyph glyph-name="eacute" unicode="&#xe9;" horiz-adv-x="273" 
d="M96 -5q-27 0 -43.5 24t-16.5 76q0 35 7.5 76t20.5 82q-13 -6 -26 -10q-5 -1 -9.5 2.5t-4.5 8.5q0 8 8 10q19 5 42 16q19 54 44.5 100t53.5 74t54 28q32 0 32 -35q0 -30 -23.5 -63.5t-61.5 -64.5t-80 -53q-16 -45 -26 -90t-10 -82q0 -43 11 -60.5t28 -17.5q28 0 58 38
t55 99q3 6 9 6q5 0 8.5 -4.5t1.5 -10.5q-29 -70 -62.5 -109.5t-69.5 -39.5zM226 461q-19 0 -40.5 -22.5t-42.5 -59.5t-39 -82q33 20 63.5 45.5t50 53t19.5 51.5q0 14 -11 14zM222 531q-7 0 -9 6t2 10l76 98q4 5 9 5q6 0 9.5 -5.5t-1.5 -10.5l-76 -98q-3 -5 -10 -5z" />
    <glyph glyph-name="ecircumflex" unicode="&#xea;" horiz-adv-x="273" 
d="M96 -5q-27 0 -43.5 24t-16.5 76q0 35 7.5 76t20.5 82q-13 -6 -26 -10q-5 -1 -9.5 2.5t-4.5 8.5q0 8 8 10q19 5 42 16q19 54 44.5 100t53.5 74t54 28q32 0 32 -35q0 -30 -23.5 -63.5t-61.5 -64.5t-80 -53q-16 -45 -26 -90t-10 -82q0 -43 11 -60.5t28 -17.5q28 0 58 38
t55 99q3 6 9 6q5 0 8.5 -4.5t1.5 -10.5q-29 -70 -62.5 -109.5t-69.5 -39.5zM226 461q-19 0 -40.5 -22.5t-42.5 -59.5t-39 -82q33 20 63.5 45.5t50 53t19.5 51.5q0 14 -11 14zM164 532q-6 0 -9 5.5t3 11.5l93 96q5 5 10 5q6 0 8 -5l43 -98q3 -7 -0.5 -11t-8.5 -4q-7 0 -9 6
l-37 85l-82 -86q-5 -5 -11 -5z" />
    <glyph glyph-name="edieresis" unicode="&#xeb;" horiz-adv-x="273" 
d="M96 -5q-27 0 -43.5 24t-16.5 76q0 35 7.5 76t20.5 82q-13 -6 -26 -10q-5 -1 -9.5 2.5t-4.5 8.5q0 8 8 10q19 5 42 16q19 54 44.5 100t53.5 74t54 28q32 0 32 -35q0 -30 -23.5 -63.5t-61.5 -64.5t-80 -53q-16 -45 -26 -90t-10 -82q0 -43 11 -60.5t28 -17.5q28 0 58 38
t55 99q3 6 9 6q5 0 8.5 -4.5t1.5 -10.5q-29 -70 -62.5 -109.5t-69.5 -39.5zM226 461q-19 0 -40.5 -22.5t-42.5 -59.5t-39 -82q33 20 63.5 45.5t50 53t19.5 51.5q0 14 -11 14zM182 531q-4 0 -7.5 3t-2.5 9l27 97q3 10 11 10q5 0 8.5 -3t1.5 -9l-27 -97q-3 -10 -11 -10z
M282 531q-4 0 -7.5 3t-2.5 9l27 97q3 10 11 10q5 0 8.5 -3t1.5 -9l-27 -97q-3 -10 -11 -10z" />
    <glyph glyph-name="igrave" unicode="&#xec;" horiz-adv-x="142" 
d="M9 0q-4 0 -7.5 3t-2.5 9l123 455q3 10 11 10q5 0 8.5 -3t1.5 -9l-123 -455q-3 -10 -11 -10zM161 532q-7 0 -10 8l-41 94q-3 8 0.5 12t7.5 4q7 0 10 -7l41 -94q4 -8 0.5 -12.5t-8.5 -4.5z" />
    <glyph glyph-name="iacute" unicode="&#xed;" horiz-adv-x="142" 
d="M9 0q-4 0 -7.5 3t-2.5 9l123 455q3 10 11 10q5 0 8.5 -3t1.5 -9l-123 -455q-3 -10 -11 -10zM141 531q-7 0 -9 6t2 10l76 98q4 5 9 5q6 0 9.5 -5.5t-1.5 -10.5l-76 -98q-3 -5 -10 -5z" />
    <glyph glyph-name="icircumflex" unicode="&#xee;" horiz-adv-x="142" 
d="M9 0q-4 0 -7.5 3t-2.5 9l123 455q3 10 11 10q5 0 8.5 -3t1.5 -9l-123 -455q-3 -10 -11 -10zM83 532q-6 0 -9 5.5t3 11.5l93 96q5 5 10 5q6 0 8 -5l43 -98q3 -7 -0.5 -11t-8.5 -4q-7 0 -9 6l-37 85l-82 -86q-5 -5 -11 -5z" />
    <glyph glyph-name="idieresis" unicode="&#xef;" horiz-adv-x="142" 
d="M9 0q-4 0 -7.5 3t-2.5 9l123 455q3 10 11 10q5 0 8.5 -3t1.5 -9l-123 -455q-3 -10 -11 -10zM101 531q-4 0 -7.5 3t-2.5 9l27 97q3 10 11 10q5 0 8.5 -3t1.5 -9l-27 -97q-3 -10 -11 -10zM201 531q-4 0 -7.5 3t-2.5 9l27 97q3 10 11 10q5 0 8.5 -3t1.5 -9l-27 -97
q-3 -10 -11 -10z" />
    <glyph glyph-name="eth" unicode="&#xf0;" horiz-adv-x="321" 
d="M96 -5q-32 0 -52 31t-20 93q0 46 10.5 96t29 97.5t42.5 86t52.5 61t58.5 22.5q20 0 39 -11.5t32 -35.5q-3 83 -28 146l-94 -30q-6 -2 -10 1.5t-4 8.5q0 7 9 10l91 29q-24 50 -65 95q-3 3 -3 7q0 11 11 11q5 0 10 -6q43 -46 67 -100l70 22q15 5 15 -8q0 -8 -9 -11l-68 -22
q28 -74 28 -171q0 -59 -12.5 -119.5t-34 -114.5t-48.5 -96.5t-57.5 -67t-59.5 -24.5zM46 119q0 -53 14 -78t37 -25q30 0 62 33.5t59.5 88t46.5 120.5t22 130v0q-8 38 -29.5 55.5t-41.5 17.5q-25 0 -49.5 -22t-46.5 -58.5t-38.5 -81.5t-26 -91.5t-9.5 -88.5z" />
    <glyph glyph-name="ntilde" unicode="&#xf1;" horiz-adv-x="308" 
d="M9 0q-4 0 -7.5 3t-2.5 9l123 455q3 10 11 10q5 0 8.5 -3t1.5 -9l-10 -37q52 54 101 54q42 0 57.5 -29.5t1.5 -81.5l-97 -361q-3 -10 -11 -10q-10 0 -7 11l94 360q24 90 -38 90q-27 0 -54.5 -17.5t-55.5 -50.5l-104 -383q-3 -10 -11 -10zM286 560q-19 0 -31.5 10.5
t-22.5 20.5t-24 10q-23 0 -34 -28q-4 -11 -11 -11q-10 0 -10 9q0 15 16.5 32.5t41.5 17.5q20 0 32 -10t22 -20.5t24 -10.5q11 0 20.5 7.5t13.5 20.5q4 11 12 11q9 0 9 -9q-1 -15 -16.5 -32.5t-41.5 -17.5z" />
    <glyph glyph-name="ograve" unicode="&#xf2;" horiz-adv-x="314" 
d="M96 -5q-32 0 -52 31t-20 93q0 46 10.5 96t29 97.5t42.5 86t52.5 61t58.5 22.5q33 0 53 -31t20 -93q0 -46 -10.5 -96t-29 -97.5t-43.5 -86t-53 -61t-58 -22.5zM97 16q25 0 50 22t46.5 58.5t38.5 81.5t26.5 91.5t9.5 88.5q0 53 -14 78t-38 25q-25 0 -49.5 -22t-46.5 -58.5
t-38.5 -81.5t-26 -91.5t-9.5 -88.5q0 -53 14 -78t37 -25zM247 532q-7 0 -10 8l-41 94q-3 8 0.5 12t7.5 4q7 0 10 -7l41 -94q4 -8 0.5 -12.5t-8.5 -4.5z" />
    <glyph glyph-name="oacute" unicode="&#xf3;" horiz-adv-x="314" 
d="M96 -5q-32 0 -52 31t-20 93q0 46 10.5 96t29 97.5t42.5 86t52.5 61t58.5 22.5q33 0 53 -31t20 -93q0 -46 -10.5 -96t-29 -97.5t-43.5 -86t-53 -61t-58 -22.5zM97 16q25 0 50 22t46.5 58.5t38.5 81.5t26.5 91.5t9.5 88.5q0 53 -14 78t-38 25q-25 0 -49.5 -22t-46.5 -58.5
t-38.5 -81.5t-26 -91.5t-9.5 -88.5q0 -53 14 -78t37 -25zM227 531q-7 0 -9 6t2 10l76 98q4 5 9 5q6 0 9.5 -5.5t-1.5 -10.5l-76 -98q-3 -5 -10 -5z" />
    <glyph glyph-name="ocircumflex" unicode="&#xf4;" horiz-adv-x="314" 
d="M96 -5q-32 0 -52 31t-20 93q0 46 10.5 96t29 97.5t42.5 86t52.5 61t58.5 22.5q33 0 53 -31t20 -93q0 -46 -10.5 -96t-29 -97.5t-43.5 -86t-53 -61t-58 -22.5zM97 16q25 0 50 22t46.5 58.5t38.5 81.5t26.5 91.5t9.5 88.5q0 53 -14 78t-38 25q-25 0 -49.5 -22t-46.5 -58.5
t-38.5 -81.5t-26 -91.5t-9.5 -88.5q0 -53 14 -78t37 -25zM169 532q-6 0 -9 5.5t3 11.5l93 96q5 5 10 5q6 0 8 -5l43 -98q3 -7 -0.5 -11t-8.5 -4q-7 0 -9 6l-37 85l-82 -86q-5 -5 -11 -5z" />
    <glyph glyph-name="otilde" unicode="&#xf5;" horiz-adv-x="314" 
d="M96 -5q-32 0 -52 31t-20 93q0 46 10.5 96t29 97.5t42.5 86t52.5 61t58.5 22.5q33 0 53 -31t20 -93q0 -46 -10.5 -96t-29 -97.5t-43.5 -86t-53 -61t-58 -22.5zM97 16q25 0 50 22t46.5 58.5t38.5 81.5t26.5 91.5t9.5 88.5q0 53 -14 78t-38 25q-25 0 -49.5 -22t-46.5 -58.5
t-38.5 -81.5t-26 -91.5t-9.5 -88.5q0 -53 14 -78t37 -25zM289 560q-19 0 -31.5 10.5t-22.5 20.5t-24 10q-23 0 -34 -28q-4 -11 -11 -11q-10 0 -10 9q0 15 16.5 32.5t41.5 17.5q20 0 32 -10t22 -20.5t24 -10.5q11 0 20.5 7.5t13.5 20.5q4 11 12 11q9 0 9 -9
q-1 -15 -16.5 -32.5t-41.5 -17.5z" />
    <glyph glyph-name="odieresis" unicode="&#xf6;" horiz-adv-x="314" 
d="M96 -5q-32 0 -52 31t-20 93q0 46 10.5 96t29 97.5t42.5 86t52.5 61t58.5 22.5q33 0 53 -31t20 -93q0 -46 -10.5 -96t-29 -97.5t-43.5 -86t-53 -61t-58 -22.5zM97 16q25 0 50 22t46.5 58.5t38.5 81.5t26.5 91.5t9.5 88.5q0 53 -14 78t-38 25q-25 0 -49.5 -22t-46.5 -58.5
t-38.5 -81.5t-26 -91.5t-9.5 -88.5q0 -53 14 -78t37 -25zM187 531q-4 0 -7.5 3t-2.5 9l27 97q3 10 11 10q5 0 8.5 -3t1.5 -9l-27 -97q-3 -10 -11 -10zM287 531q-4 0 -7.5 3t-2.5 9l27 97q3 10 11 10q5 0 8.5 -3t1.5 -9l-27 -97q-3 -10 -11 -10z" />
    <glyph glyph-name="divide" unicode="&#xf7;" horiz-adv-x="577" 
d="M327 376q-4 0 -7.5 3t-2.5 9l22 79q3 10 11 10q5 0 8.5 -3t1.5 -9l-22 -79q-3 -10 -11 -10zM59 228q-9 0 -9 9q0 12 12 12h456q9 0 9 -9q0 -12 -12 -12h-456zM227 0q-4 0 -7.5 3t-2.5 9l22 79q3 10 11 10q5 0 8.5 -3t1.5 -9l-22 -79q-3 -10 -11 -10z" />
    <glyph glyph-name="oslash" unicode="&#xf8;" horiz-adv-x="314" 
d="M-3 -5q-5 0 -9 4t1 12l39 58q-4 22 -4 50q0 46 10.5 96t29 97.5t42.5 86t52.5 61t58.5 22.5q41 0 60 -44l24 36q5 8 11 8q5 0 9 -4t-1 -12l-35 -53q5 -24 5 -55q0 -46 -10.5 -96t-29 -97.5t-43.5 -86t-53 -61t-58 -22.5q-42 0 -61 49l-27 -41q-5 -8 -11 -8zM46 119
q0 -12 1 -22l215 319q-12 45 -46 45q-25 0 -49.5 -22t-46.5 -58.5t-38.5 -81.5t-26 -91.5t-9.5 -88.5zM97 16q25 0 50 22t46.5 58.5t38.5 81.5t26.5 91.5t9.5 88.5q0 16 -1 29l-216 -320q11 -51 46 -51z" />
    <glyph glyph-name="ugrave" unicode="&#xf9;" horiz-adv-x="307" 
d="M74 -5q-42 0 -57.5 29.5t-1.5 81.5l97 361q3 10 11 10q10 0 7 -11l-94 -360q-24 -90 38 -90q50 0 109 66l104 385q3 10 11 10q5 0 8.5 -3t1.5 -9l-123 -455q-3 -10 -11 -10q-4 0 -7.5 3t-2.5 9l10 35q-51 -52 -100 -52zM237 532q-7 0 -10 8l-41 94q-3 8 0.5 12t7.5 4
q7 0 10 -7l41 -94q4 -8 0.5 -12.5t-8.5 -4.5z" />
    <glyph glyph-name="uacute" unicode="&#xfa;" horiz-adv-x="307" 
d="M74 -5q-42 0 -57.5 29.5t-1.5 81.5l97 361q3 10 11 10q10 0 7 -11l-94 -360q-24 -90 38 -90q50 0 109 66l104 385q3 10 11 10q5 0 8.5 -3t1.5 -9l-123 -455q-3 -10 -11 -10q-4 0 -7.5 3t-2.5 9l10 35q-51 -52 -100 -52zM217 531q-7 0 -9 6t2 10l76 98q4 5 9 5
q6 0 9.5 -5.5t-1.5 -10.5l-76 -98q-3 -5 -10 -5z" />
    <glyph glyph-name="ucircumflex" unicode="&#xfb;" horiz-adv-x="307" 
d="M74 -5q-42 0 -57.5 29.5t-1.5 81.5l97 361q3 10 11 10q10 0 7 -11l-94 -360q-24 -90 38 -90q50 0 109 66l104 385q3 10 11 10q5 0 8.5 -3t1.5 -9l-123 -455q-3 -10 -11 -10q-4 0 -7.5 3t-2.5 9l10 35q-51 -52 -100 -52zM159 532q-6 0 -9 5.5t3 11.5l93 96q5 5 10 5
q6 0 8 -5l43 -98q3 -7 -0.5 -11t-8.5 -4q-7 0 -9 6l-37 85l-82 -86q-5 -5 -11 -5z" />
    <glyph glyph-name="udieresis" unicode="&#xfc;" horiz-adv-x="307" 
d="M74 -5q-42 0 -57.5 29.5t-1.5 81.5l97 361q3 10 11 10q10 0 7 -11l-94 -360q-24 -90 38 -90q50 0 109 66l104 385q3 10 11 10q5 0 8.5 -3t1.5 -9l-123 -455q-3 -10 -11 -10q-4 0 -7.5 3t-2.5 9l10 35q-51 -52 -100 -52zM177 531q-4 0 -7.5 3t-2.5 9l27 97q3 10 11 10
q5 0 8.5 -3t1.5 -9l-27 -97q-3 -10 -11 -10zM277 531q-4 0 -7.5 3t-2.5 9l27 97q3 10 11 10q5 0 8.5 -3t1.5 -9l-27 -97q-3 -10 -11 -10z" />
    <glyph glyph-name="yacute" unicode="&#xfd;" horiz-adv-x="287" 
d="M-94 -187q-9 0 -9 9q0 12 12 12q40 0 72.5 29t65.5 95l25 50l10 456q0 13 13 13q9 0 9 -8l-11 -418l213 418q5 8 12 8q5 0 8.5 -4t0.5 -9l-233 -455l-21 -44q-38 -82 -76.5 -117t-90.5 -35zM214 531q-7 0 -9 6t2 10l76 98q4 5 9 5q6 0 9.5 -5.5t-1.5 -10.5l-76 -98
q-3 -5 -10 -5z" />
    <glyph glyph-name="thorn" unicode="&#xfe;" horiz-adv-x="307" 
d="M92 -5q-19 0 -36 11t-27 34l-8 -30q-1 -4 -2 -6l-49 -181q-3 -10 -11 -10q-4 0 -7.5 3t-2.5 9l164 610q-19 -11 -37 -24q-7 -4 -12 -1t-5 8q0 7 7 11q27 20 54 32l15 55q1 4 2 6l43 158q3 10 11 10q5 0 8.5 -3t1.5 -9l-56 -206q30 10 56 10q83 0 83 -114
q0 -64 -17 -129.5t-45.5 -120.5t-62.5 -89t-67 -34zM198 461q-26 0 -59 -14l-102 -378q7 -25 22.5 -39t32.5 -14q22 0 46 21.5t46 58.5t39.5 83t28 95t10.5 94q0 93 -64 93z" />
    <glyph glyph-name="ydieresis" unicode="&#xff;" horiz-adv-x="287" 
d="M-94 -187q-9 0 -9 9q0 12 12 12q40 0 72.5 29t65.5 95l25 50l10 456q0 13 13 13q9 0 9 -8l-11 -418l213 418q5 8 12 8q5 0 8.5 -4t0.5 -9l-233 -455l-21 -44q-38 -82 -76.5 -117t-90.5 -35zM174 531q-4 0 -7.5 3t-2.5 9l27 97q3 10 11 10q5 0 8.5 -3t1.5 -9l-27 -97
q-3 -10 -11 -10zM274 531q-4 0 -7.5 3t-2.5 9l27 97q3 10 11 10q5 0 8.5 -3t1.5 -9l-27 -97q-3 -10 -11 -10z" />
    <glyph glyph-name="dotlessi" unicode="&#x131;" horiz-adv-x="142" 
d="M9 0q-4 0 -7.5 3t-2.5 9l123 455q3 10 11 10q5 0 8.5 -3t1.5 -9l-123 -455q-3 -10 -11 -10z" />
    <glyph glyph-name="OE" unicode="&#x152;" horiz-adv-x="507" 
d="M182 0q-59 0 -97 43.5t-38 141.5q0 67 16 137.5t45.5 136t69.5 118t87.5 83t100.5 30.5h215q9 0 9 -9q0 -12 -12 -12h-179l-77 -287h167q9 0 9 -9q0 -12 -12 -12h-170l-91 -340h177q9 0 9 -9q0 -12 -12 -12h-217zM184 21h20l174 648h-14q-48 0 -92 -30t-81 -80.5
t-64.5 -113.5t-42.5 -130.5t-15 -129.5q0 -91 32 -127.5t83 -36.5z" />
    <glyph glyph-name="oe" unicode="&#x153;" horiz-adv-x="465" 
d="M87 -5q-25 0 -43.5 31t-18.5 93q0 46 10 96t28 97.5t41.5 86t50 61t53.5 22.5q29 0 46 -31t17 -93q0 -8 -0.5 -17t-2.5 -22q31 71 70 117t76 46q36 0 36 -43q0 -36 -25.5 -73t-69 -69.5t-96.5 -53.5q-14 -39 -22 -78t-8 -71q0 -43 13.5 -60.5t35.5 -17.5q35 0 66.5 38
t56.5 99q3 6 9 6q5 0 8.5 -4.5t1.5 -10.5q-29 -70 -63.5 -109.5t-78.5 -39.5q-31 0 -50.5 24t-19.5 76v9.5t1 11.5q-25 -55 -56.5 -88t-65.5 -33zM414 461q-24 0 -50 -26.5t-51 -70t-44 -93.5q42 20 78.5 47t59 58.5t22.5 62.5q0 22 -15 22zM88 16q24 0 47 22t43.5 58.5
t36.5 81.5t25 91.5t9 88.5q0 53 -11 78t-31 25q-22 0 -45 -22t-43.5 -58.5t-36.5 -81.5t-25.5 -91.5t-9.5 -88.5q0 -53 12.5 -78t28.5 -25z" />
    <glyph glyph-name="Wcircumflex" unicode="&#x174;" horiz-adv-x="532" 
d="M36 0q-5 0 -6.5 3.5t-0.5 6.5l134 670q2 10 11 10q12 0 10 -10l-129 -645q52 46 106.5 102.5t96.5 114.5q-4 26 -4 52q0 45 10.5 85t27.5 65.5t37 25.5q12 0 20 -10t8 -29q0 -46 -22 -95.5t-56 -97.5q8 -53 30.5 -105t57.5 -109l217 646q3 10 12 10q5 0 8 -3t1 -9
l-224 -668q-3 -10 -13 -10q-5 0 -9 6q-36 57 -60.5 111.5t-35.5 107.5q-34 -45 -73 -86.5t-76.5 -76t-66.5 -58.5q-4 -4 -11 -4zM275 306q0 -14 1 -27q27 41 43.5 82t16.5 77q0 22 -10 22t-22 -25t-20.5 -60.5t-8.5 -68.5zM340 730q-6 0 -9 5.5t3 11.5l80 78q5 5 10 5
q6 0 8 -5l37 -80q3 -7 -0.5 -11t-8.5 -4q-7 0 -9 6l-31 67l-69 -68q-5 -5 -11 -5z" />
    <glyph glyph-name="wcircumflex" unicode="&#x175;" horiz-adv-x="397" 
d="M16 0q-10 0 -8 10l83 457q2 10 13 10q10 0 8 -10l-79 -428q50 46 84.5 83.5t57.5 67.5q-7 32 -7 59q0 51 17 82.5t42 31.5q28 0 28 -39q0 -24 -11 -57t-46 -81q14 -58 55 -151l153 432q3 10 14 10t8 -10l-162 -457q-3 -10 -14 -10q-2 0 -4.5 0.5t-4.5 4.5
q-21 47 -36.5 86.5t-25.5 72.5q-25 -32 -63 -72t-91 -88q-4 -3 -6.5 -3.5t-4.5 -0.5zM190 249q0 -16 3 -34q23 35 31.5 61.5t8.5 47.5q0 17 -9 17q-11 0 -22.5 -28t-11.5 -64zM211 532q-6 0 -9 5.5t3 11.5l93 96q5 5 10 5q6 0 8 -5l43 -98q3 -7 -0.5 -11t-8.5 -4q-7 0 -9 6
l-37 85l-82 -86q-5 -5 -11 -5z" />
    <glyph glyph-name="Ycircumflex" unicode="&#x176;" horiz-adv-x="371" 
d="M124 0q-4 0 -7.5 3t-2.5 9l81 304l-66 360q-1 5 1 9.5t9 4.5q8 0 10 -10l63 -338l244 339q6 9 13 9q6 0 9.5 -4.5t-1.5 -11.5l-261 -363l-81 -301q-3 -10 -11 -10zM260 730q-6 0 -9 5.5t3 11.5l80 78q5 5 10 5q6 0 8 -5l37 -80q3 -7 -0.5 -11t-8.5 -4q-7 0 -9 6l-31 67
l-69 -68q-5 -5 -11 -5z" />
    <glyph glyph-name="ycircumflex" unicode="&#x177;" horiz-adv-x="287" 
d="M-94 -187q-9 0 -9 9q0 12 12 12q40 0 72.5 29t65.5 95l25 50l10 456q0 13 13 13q9 0 9 -8l-11 -418l213 418q5 8 12 8q5 0 8.5 -4t0.5 -9l-233 -455l-21 -44q-38 -82 -76.5 -117t-90.5 -35zM156 532q-6 0 -9 5.5t3 11.5l93 96q5 5 10 5q6 0 8 -5l43 -98q3 -7 -0.5 -11
t-8.5 -4q-7 0 -9 6l-37 85l-82 -86q-5 -5 -11 -5z" />
    <glyph glyph-name="Ydieresis" unicode="&#x178;" horiz-adv-x="371" 
d="M124 0q-4 0 -7.5 3t-2.5 9l81 304l-66 360q-1 5 1 9.5t9 4.5q8 0 10 -10l63 -338l244 339q6 9 13 9q6 0 9.5 -4.5t-1.5 -11.5l-261 -363l-81 -301q-3 -10 -11 -10zM275 730q-4 0 -7.5 3t-2.5 9l21 78q3 10 11 10q5 0 8.5 -3t1.5 -9l-21 -78q-3 -10 -11 -10zM365 730
q-4 0 -7.5 3t-2.5 9l21 78q3 10 11 10q5 0 8.5 -3t1.5 -9l-21 -78q-3 -10 -11 -10z" />
    <glyph glyph-name="uni0237" unicode="&#x237;" horiz-adv-x="142" 
d="M-178 -187q-9 0 -9 9q0 12 12 12q67 0 105 36t58 106l16 56l118 435q3 10 11 10q5 0 8.5 -3t1.5 -9l-123 -455l-8 -28q-25 -90 -70.5 -129.5t-119.5 -39.5z" />
    <glyph glyph-name="circumflex" unicode="&#x2c6;" horiz-adv-x="279" 
d="M151 532q-6 0 -9 5.5t3 11.5l93 96q5 5 10 5q6 0 8 -5l43 -98q3 -7 -0.5 -11t-8.5 -4q-7 0 -9 6l-37 85l-82 -86q-5 -5 -11 -5z" />
    <glyph glyph-name="ring" unicode="&#x2da;" horiz-adv-x="245" 
d="M212 531q-25 0 -41 15t-16 39q0 27 18.5 46t47.5 19q26 0 41.5 -15t15.5 -39q0 -26 -18.5 -45.5t-47.5 -19.5zM213 551q20 0 32 13.5t12 30.5t-10 26t-27 9q-21 0 -32.5 -13t-11.5 -32q0 -34 37 -34z" />
    <glyph glyph-name="tilde" unicode="&#x2dc;" horiz-adv-x="302" 
d="M283 560q-19 0 -31.5 10.5t-22.5 20.5t-24 10q-23 0 -34 -28q-4 -11 -11 -11q-10 0 -10 9q0 15 16.5 32.5t41.5 17.5q20 0 32 -10t22 -20.5t24 -10.5q11 0 20.5 7.5t13.5 20.5q4 11 12 11q9 0 9 -9q-1 -15 -16.5 -32.5t-41.5 -17.5z" />
    <glyph glyph-name="gravecomb" unicode="&#x300;" 
d="M220 532q-7 0 -10 8l-41 94q-3 8 0.5 12t7.5 4q7 0 10 -7l41 -94q4 -8 0.5 -12.5t-8.5 -4.5z" />
    <glyph glyph-name="acutecomb" unicode="&#x301;" 
d="M151 531q-7 0 -9 6t2 10l76 98q4 5 9 5q6 0 9.5 -5.5t-1.5 -10.5l-76 -98q-3 -5 -10 -5z" />
    <glyph glyph-name="uni0302" unicode="&#x302;" 
d="M151 532q-6 0 -9 5.5t3 11.5l93 96q5 5 10 5q6 0 8 -5l43 -98q3 -7 -0.5 -11t-8.5 -4q-7 0 -9 6l-37 85l-82 -86q-5 -5 -11 -5z" />
    <glyph glyph-name="tildecomb" unicode="&#x303;" 
d="M283 560q-19 0 -31.5 10.5t-22.5 20.5t-24 10q-23 0 -34 -28q-4 -11 -11 -11q-10 0 -10 9q0 15 16.5 32.5t41.5 17.5q20 0 32 -10t22 -20.5t24 -10.5q11 0 20.5 7.5t13.5 20.5q4 11 12 11q9 0 9 -9q-1 -15 -16.5 -32.5t-41.5 -17.5z" />
    <glyph glyph-name="uni0307" unicode="&#x307;" 
d="M152 531q-4 0 -7.5 3t-2.5 9l27 97q3 10 11 10q5 0 8.5 -3t1.5 -9l-27 -97q-3 -10 -11 -10z" />
    <glyph glyph-name="uni0308" unicode="&#x308;" 
d="M152 531q-4 0 -7.5 3t-2.5 9l27 97q3 10 11 10q5 0 8.5 -3t1.5 -9l-27 -97q-3 -10 -11 -10zM252 531q-4 0 -7.5 3t-2.5 9l27 97q3 10 11 10q5 0 8.5 -3t1.5 -9l-27 -97q-3 -10 -11 -10z" />
    <glyph glyph-name="uni030A" unicode="&#x30a;" 
d="M212 531q-25 0 -41 15t-16 39q0 27 18.5 46t47.5 19q26 0 41.5 -15t15.5 -39q0 -26 -18.5 -45.5t-47.5 -19.5zM213 551q20 0 32 13.5t12 30.5t-10 26t-27 9q-21 0 -32.5 -13t-11.5 -32q0 -34 37 -34z" />
    <glyph glyph-name="uni0327" unicode="&#x327;" 
d="M12 -159q-16 0 -29.5 6.5t-18.5 15.5q-4 8 -1 12.5t8 4.5q6 0 10 -5q11 -14 31 -14q21 0 36.5 16t15.5 37q0 11 -5 18.5t-19 7.5q-19 0 -31 -12q-6 -6 -11 -6q-4 0 -7 3t1 10l39 65h22l-25 -43q8 3 15 3q18 0 30 -12t12 -34q0 -29 -21.5 -51t-51.5 -22z" />
    <glyph glyph-name="Wgrave" unicode="&#x1e80;" horiz-adv-x="532" 
d="M36 0q-5 0 -6.5 3.5t-0.5 6.5l134 670q2 10 11 10q12 0 10 -10l-129 -645q52 46 106.5 102.5t96.5 114.5q-4 26 -4 52q0 45 10.5 85t27.5 65.5t37 25.5q12 0 20 -10t8 -29q0 -46 -22 -95.5t-56 -97.5q8 -53 30.5 -105t57.5 -109l217 646q3 10 12 10q5 0 8 -3t1 -9
l-224 -668q-3 -10 -13 -10q-5 0 -9 6q-36 57 -60.5 111.5t-35.5 107.5q-34 -45 -73 -86.5t-76.5 -76t-66.5 -58.5q-4 -4 -11 -4zM275 306q0 -14 1 -27q27 41 43.5 82t16.5 77q0 22 -10 22t-22 -25t-20.5 -60.5t-8.5 -68.5zM397 731q-7 0 -10 8l-33 75q-3 8 0.5 12t7.5 4
q7 0 10 -7l33 -75q4 -8 0.5 -12.5t-8.5 -4.5z" />
    <glyph glyph-name="wgrave" unicode="&#x1e81;" horiz-adv-x="397" 
d="M16 0q-10 0 -8 10l83 457q2 10 13 10q10 0 8 -10l-79 -428q50 46 84.5 83.5t57.5 67.5q-7 32 -7 59q0 51 17 82.5t42 31.5q28 0 28 -39q0 -24 -11 -57t-46 -81q14 -58 55 -151l153 432q3 10 14 10t8 -10l-162 -457q-3 -10 -14 -10q-2 0 -4.5 0.5t-4.5 4.5
q-21 47 -36.5 86.5t-25.5 72.5q-25 -32 -63 -72t-91 -88q-4 -3 -6.5 -3.5t-4.5 -0.5zM190 249q0 -16 3 -34q23 35 31.5 61.5t8.5 47.5q0 17 -9 17q-11 0 -22.5 -28t-11.5 -64zM289 532q-7 0 -10 8l-41 94q-3 8 0.5 12t7.5 4q7 0 10 -7l41 -94q4 -8 0.5 -12.5t-8.5 -4.5z" />
    <glyph glyph-name="Wacute" unicode="&#x1e82;" horiz-adv-x="532" 
d="M36 0q-5 0 -6.5 3.5t-0.5 6.5l134 670q2 10 11 10q12 0 10 -10l-129 -645q52 46 106.5 102.5t96.5 114.5q-4 26 -4 52q0 45 10.5 85t27.5 65.5t37 25.5q12 0 20 -10t8 -29q0 -46 -22 -95.5t-56 -97.5q8 -53 30.5 -105t57.5 -109l217 646q3 10 12 10q5 0 8 -3t1 -9
l-224 -668q-3 -10 -13 -10q-5 0 -9 6q-36 57 -60.5 111.5t-35.5 107.5q-34 -45 -73 -86.5t-76.5 -76t-66.5 -58.5q-4 -4 -11 -4zM275 306q0 -14 1 -27q27 41 43.5 82t16.5 77q0 22 -10 22t-22 -25t-20.5 -60.5t-8.5 -68.5zM394 730q-7 0 -9 6t2 10l63 79q4 5 9 5
q6 0 9.5 -5.5t-1.5 -10.5l-63 -79q-3 -5 -10 -5z" />
    <glyph glyph-name="wacute" unicode="&#x1e83;" horiz-adv-x="397" 
d="M16 0q-10 0 -8 10l83 457q2 10 13 10q10 0 8 -10l-79 -428q50 46 84.5 83.5t57.5 67.5q-7 32 -7 59q0 51 17 82.5t42 31.5q28 0 28 -39q0 -24 -11 -57t-46 -81q14 -58 55 -151l153 432q3 10 14 10t8 -10l-162 -457q-3 -10 -14 -10q-2 0 -4.5 0.5t-4.5 4.5
q-21 47 -36.5 86.5t-25.5 72.5q-25 -32 -63 -72t-91 -88q-4 -3 -6.5 -3.5t-4.5 -0.5zM190 249q0 -16 3 -34q23 35 31.5 61.5t8.5 47.5q0 17 -9 17q-11 0 -22.5 -28t-11.5 -64zM269 531q-7 0 -9 6t2 10l76 98q4 5 9 5q6 0 9.5 -5.5t-1.5 -10.5l-76 -98q-3 -5 -10 -5z" />
    <glyph glyph-name="Wdieresis" unicode="&#x1e84;" horiz-adv-x="532" 
d="M36 0q-5 0 -6.5 3.5t-0.5 6.5l134 670q2 10 11 10q12 0 10 -10l-129 -645q52 46 106.5 102.5t96.5 114.5q-4 26 -4 52q0 45 10.5 85t27.5 65.5t37 25.5q12 0 20 -10t8 -29q0 -46 -22 -95.5t-56 -97.5q8 -53 30.5 -105t57.5 -109l217 646q3 10 12 10q5 0 8 -3t1 -9
l-224 -668q-3 -10 -13 -10q-5 0 -9 6q-36 57 -60.5 111.5t-35.5 107.5q-34 -45 -73 -86.5t-76.5 -76t-66.5 -58.5q-4 -4 -11 -4zM275 306q0 -14 1 -27q27 41 43.5 82t16.5 77q0 22 -10 22t-22 -25t-20.5 -60.5t-8.5 -68.5zM355 730q-4 0 -7.5 3t-2.5 9l21 78q3 10 11 10
q5 0 8.5 -3t1.5 -9l-21 -78q-3 -10 -11 -10zM445 730q-4 0 -7.5 3t-2.5 9l21 78q3 10 11 10q5 0 8.5 -3t1.5 -9l-21 -78q-3 -10 -11 -10z" />
    <glyph glyph-name="wdieresis" unicode="&#x1e85;" horiz-adv-x="397" 
d="M16 0q-10 0 -8 10l83 457q2 10 13 10q10 0 8 -10l-79 -428q50 46 84.5 83.5t57.5 67.5q-7 32 -7 59q0 51 17 82.5t42 31.5q28 0 28 -39q0 -24 -11 -57t-46 -81q14 -58 55 -151l153 432q3 10 14 10t8 -10l-162 -457q-3 -10 -14 -10q-2 0 -4.5 0.5t-4.5 4.5
q-21 47 -36.5 86.5t-25.5 72.5q-25 -32 -63 -72t-91 -88q-4 -3 -6.5 -3.5t-4.5 -0.5zM190 249q0 -16 3 -34q23 35 31.5 61.5t8.5 47.5q0 17 -9 17q-11 0 -22.5 -28t-11.5 -64zM229 531q-4 0 -7.5 3t-2.5 9l27 97q3 10 11 10q5 0 8.5 -3t1.5 -9l-27 -97q-3 -10 -11 -10z
M329 531q-4 0 -7.5 3t-2.5 9l27 97q3 10 11 10q5 0 8.5 -3t1.5 -9l-27 -97q-3 -10 -11 -10z" />
    <glyph glyph-name="uni1E9E" unicode="&#x1e9e;" horiz-adv-x="375" 
d="M105 -5q-26 0 -45 6t-19 16t11 10q8 0 17 -6t40 -6q43 0 79.5 26t63 67.5t41 89.5t14.5 93q0 49 -21 79q-17 -13 -36.5 -21t-39.5 -8q-22 0 -35 11t-13 27q0 22 18.5 34.5t42.5 12.5q41 0 68 -27q22 24 39 56t26.5 67t9.5 65q0 45 -20.5 66t-56.5 21q-41 0 -76.5 -39
t-52.5 -103l-140 -522q-3 -10 -13 -10q-11 0 -8 12l142 526q20 75 60.5 116t90.5 41q45 0 70.5 -25.5t25.5 -74.5q0 -35 -10.5 -74t-30 -74.5t-44.5 -60.5q26 -37 26 -94q0 -50 -17 -102t-47.5 -96.5t-71 -71.5t-88.5 -27zM184 381q0 -21 32 -21q30 0 59 24q-21 19 -52 22
q-17 2 -28 -5.5t-11 -19.5z" />
    <glyph glyph-name="Ygrave" unicode="&#x1ef2;" horiz-adv-x="371" 
d="M124 0q-4 0 -7.5 3t-2.5 9l81 304l-66 360q-1 5 1 9.5t9 4.5q8 0 10 -10l63 -338l244 339q6 9 13 9q6 0 9.5 -4.5t-1.5 -11.5l-261 -363l-81 -301q-3 -10 -11 -10zM317 731q-7 0 -10 8l-33 75q-3 8 0.5 12t7.5 4q7 0 10 -7l33 -75q4 -8 0.5 -12.5t-8.5 -4.5z" />
    <glyph glyph-name="ygrave" unicode="&#x1ef3;" horiz-adv-x="287" 
d="M-94 -187q-9 0 -9 9q0 12 12 12q40 0 72.5 29t65.5 95l25 50l10 456q0 13 13 13q9 0 9 -8l-11 -418l213 418q5 8 12 8q5 0 8.5 -4t0.5 -9l-233 -455l-21 -44q-38 -82 -76.5 -117t-90.5 -35zM234 532q-7 0 -10 8l-41 94q-3 8 0.5 12t7.5 4q7 0 10 -7l41 -94
q4 -8 0.5 -12.5t-8.5 -4.5z" />
    <glyph glyph-name="endash" unicode="&#x2013;" horiz-adv-x="425" 
d="M49 228q-9 0 -9 9q0 12 12 12h324q9 0 9 -9q0 -12 -12 -12h-324z" />
    <glyph glyph-name="emdash" unicode="&#x2014;" horiz-adv-x="770" 
d="M49 228q-9 0 -9 9q0 12 12 12h669q9 0 9 -9q0 -12 -12 -12h-669z" />
    <glyph glyph-name="quoteleft" unicode="&#x2018;" horiz-adv-x="146" 
d="M133 500q-4 0 -7.5 3t-2.5 9l27 97q8 26 23 46.5t36 29.5q12 5 17 5q8 0 8 -9q0 -3 -2 -7t-10 -6q-16 -5 -31 -22t-20 -37l-27 -99q-3 -10 -11 -10z" />
    <glyph glyph-name="quoteright" unicode="&#x2019;" horiz-adv-x="146" 
d="M204 691q4 0 7.5 -3t2.5 -9l-27 -97q-8 -26 -23 -46.5t-36 -29.5q-12 -5 -17 -5q-8 0 -8 9q0 3 2 7t10 6q16 5 31 22t20 37l27 99q3 10 11 10z" />
    <glyph glyph-name="quotesinglbase" unicode="&#x201a;" horiz-adv-x="146" 
d="M37 104q4 0 7.5 -3t2.5 -9l-27 -97q-8 -26 -23 -46.5t-36 -29.5q-12 -5 -17 -5q-8 0 -8 9q0 3 2 7t10 6q16 5 31 22t20 37l27 99q3 10 11 10z" />
    <glyph glyph-name="quotedblleft" unicode="&#x201c;" horiz-adv-x="220" 
d="M133 500q-4 0 -7.5 3t-2.5 9l27 97q8 26 23 46.5t36 29.5q12 5 17 5q8 0 8 -9q0 -3 -2 -7t-10 -6q-16 -5 -31 -22t-20 -37l-27 -99q-3 -10 -11 -10zM207 500q-4 0 -7.5 3t-2.5 9l27 97q8 26 23 46.5t36 29.5q12 5 17 5q8 0 8 -9q0 -3 -2 -7t-10 -6q-16 -5 -31 -22
t-20 -37l-27 -99q-3 -10 -11 -10z" />
    <glyph glyph-name="quotedblright" unicode="&#x201d;" horiz-adv-x="220" 
d="M278 691q4 0 7.5 -3t2.5 -9l-27 -97q-8 -26 -23 -46.5t-36 -29.5q-12 -5 -17 -5q-8 0 -8 9q0 3 2 7t10 6q16 5 31 22t20 37l27 99q3 10 11 10zM204 691q4 0 7.5 -3t2.5 -9l-27 -97q-8 -26 -23 -46.5t-36 -29.5q-12 -5 -17 -5q-8 0 -8 9q0 3 2 7t10 6q16 5 31 22t20 37
l27 99q3 10 11 10z" />
    <glyph glyph-name="quotedblbase" unicode="&#x201e;" horiz-adv-x="220" 
d="M37 104q4 0 7.5 -3t2.5 -9l-27 -97q-8 -26 -23 -46.5t-36 -29.5q-12 -5 -17 -5q-8 0 -8 9q0 3 2 7t10 6q16 5 31 22t20 37l27 99q3 10 11 10zM111 104q4 0 7.5 -3t2.5 -9l-27 -97q-8 -26 -23 -46.5t-36 -29.5q-12 -5 -17 -5q-8 0 -8 9q0 3 2 7t10 6q16 5 31 22t20 37
l27 99q3 10 11 10z" />
    <glyph glyph-name="bullet" unicode="&#x2022;" horiz-adv-x="324" 
d="M190 227q-32 0 -59 16t-42.5 43t-15.5 59q0 33 15.5 59.5t42.5 42t59 15.5q33 0 60 -15.5t42.5 -42t15.5 -59.5q0 -32 -15.5 -59t-42.5 -43t-60 -16z" />
    <glyph glyph-name="ellipsis" unicode="&#x2026;" horiz-adv-x="652" 
d="M29 0q-4 0 -7.5 3t-2.5 9l22 79q3 10 11 10q5 0 8.5 -3t1.5 -9l-22 -79q-3 -10 -11 -10zM264 0q-4 0 -7.5 3t-2.5 9l22 79q3 10 11 10q5 0 8.5 -3t1.5 -9l-22 -79q-3 -10 -11 -10zM499 0q-4 0 -7.5 3t-2.5 9l22 79q3 10 11 10q5 0 8.5 -3t1.5 -9l-22 -79q-3 -10 -11 -10z
" />
    <glyph glyph-name="guilsinglleft" unicode="&#x2039;" horiz-adv-x="266" 
d="M174 95q-4 0 -7 4l-112 180q-2 4 -2 7q0 5 2.5 7.5l4.5 4.5l210 181q4 4 9 4t8.5 -6t-3.5 -12l-209 -180l108 -174q3 -4 1 -10t-10 -6z" />
    <glyph glyph-name="guilsinglright" unicode="&#x203a;" horiz-adv-x="266" 
d="M119 483q4 0 7 -4l112 -180q2 -4 2 -7q0 -5 -2.5 -7.5l-4.5 -4.5l-210 -181q-4 -4 -9 -4t-8.5 6t3.5 12l209 180l-108 174q-3 4 -1 10t10 6z" />
    <glyph glyph-name="fraction" unicode="&#x2044;" horiz-adv-x="51" 
d="M-151 0q-5 0 -9 3.5t0 10.5l408 668q4 8 11 8q5 0 9 -3.5t0 -10.5l-408 -668q-4 -8 -11 -8z" />
    <glyph glyph-name="uni2074" unicode="&#x2074;" horiz-adv-x="238" 
d="M184 381q-11 0 -9 10l18 68h-93q-9 0 -9 6q0 3 6 11l148 208q5 6 10 6q6 0 10 -4.5t0 -9.5l-140 -196h74l28 105q3 10 12 10q5 0 8 -2.5t1 -7.5l-28 -105h42q8 0 8 -7t-4.5 -10.5t-9.5 -3.5h-42l-18 -68q-2 -10 -12 -10z" />
    <glyph glyph-name="Euro" unicode="&#x20ac;" horiz-adv-x="391" 
d="M191 -5q-64 0 -95 51.5t-31 130.5q0 55 9 112h-43q-9 0 -9 9q0 12 12 12h44q7 35 17 69h-40q-9 0 -9 9q0 12 12 12h44q28 83 71.5 150t95.5 106t105 39q23 0 48.5 -9t41.5 -26q3 -3 3 -7q0 -5 -4 -9t-9 -4t-9 4q-13 15 -33 22.5t-40 7.5q-47 0 -94 -36.5t-86.5 -99
t-66.5 -138.5h139q9 0 9 -9q0 -12 -12 -12h-143q-11 -34 -18 -69h140q9 0 9 -9q0 -12 -12 -12h-141q-9 -54 -9 -106q0 -71 25.5 -119t80.5 -48q20 0 46 7.5t48 23.5q5 3 8 3q8 0 8 -8q0 -7 -8 -12q-23 -17 -51.5 -26t-52.5 -9z" />
    <glyph glyph-name="trademark" unicode="&#x2122;" horiz-adv-x="506" 
d="M285 355q-11 0 -8 10l84 315q3 10 13 10q3 0 6 -1.5t5 -3.5l57 -42q7 -5 13 -12q9 6 20 12l79 42q3 2 6.5 3.5t6.5 1.5q10 0 7 -10l-84 -315q-3 -10 -13 -10q-11 0 -8 10l79 296l-65 -36q-10 -5 -17 -10q8 -17 8 -34q0 -24 -14.5 -41.5t-24.5 -27.5q4 -10 6.5 -21
t2.5 -19q0 -22 -12.5 -37t-29.5 -15q-13 0 -19.5 9.5t-6.5 19.5q0 20 13 38t23 28q-3 8 -6 19.5t-3 22.5q0 33 36 62q-5 5 -10 9l-51 38l-80 -301q-3 -10 -13 -10zM139 355q-11 0 -8 10l81 304h-65q-9 0 -9 9q0 12 12 12h155q9 0 9 -9q0 -12 -12 -12h-69l-81 -304
q-3 -10 -13 -10zM424 556q0 -11 4 -24q9 9 17.5 21.5t8.5 27.5q0 11 -5 21q-25 -21 -25 -46zM397 450q0 -9 8 -9q7 0 12.5 8t5.5 21q0 11 -4 24q-8 -10 -15 -21.5t-7 -22.5z" />
    <glyph glyph-name="minus" unicode="&#x2212;" horiz-adv-x="557" 
d="M68 298q-9 0 -9 9q0 12 12 12h456q9 0 9 -9q0 -12 -12 -12h-456z" />
    <glyph glyph-name="uni2215" unicode="&#x2215;" horiz-adv-x="260" 
d="M-47 0q-4 0 -8 3.5t0 10.5l412 691q5 8 12 8q5 0 9 -3.5t0 -10.5l-413 -691q-2 -4 -4.5 -6t-7.5 -2z" />
    <glyph glyph-name="NULL" horiz-adv-x="600" 
 />
    <glyph glyph-name="acutecomb.case" 
d="M204 730q-7 0 -9 6t2 10l63 79q4 5 9 5q6 0 9.5 -5.5t-1.5 -10.5l-63 -79q-3 -5 -10 -5z" />
    <glyph glyph-name="uni0302.case" 
d="M204 730q-6 0 -9 5.5t3 11.5l80 78q5 5 10 5q6 0 8 -5l37 -80q3 -7 -0.5 -11t-8.5 -4q-7 0 -9 6l-31 67l-69 -68q-5 -5 -11 -5z" />
    <glyph glyph-name="uni0307.case" 
d="M205 730q-4 0 -7.5 3t-2.5 9l21 78q3 10 11 10q5 0 8.5 -3t1.5 -9l-21 -78q-3 -10 -11 -10z" />
    <glyph glyph-name="gravecomb.case" 
d="M261 731q-7 0 -10 8l-33 75q-3 8 0.5 12t7.5 4q7 0 10 -7l33 -75q4 -8 0.5 -12.5t-8.5 -4.5z" />
    <glyph glyph-name="uni030A.case" 
d="M259 725q-24 0 -38.5 14t-14.5 36q0 25 17 42.5t44 17.5q24 0 38.5 -13.5t14.5 -36.5q0 -25 -17 -42.5t-44 -17.5zM260 743q18 0 29.5 12.5t11.5 28.5q0 15 -9.5 23.5t-25.5 8.5q-19 0 -30 -12t-11 -29q0 -32 35 -32z" />
    <glyph glyph-name="tildecomb.case" 
d="M334 752q-19 0 -31.5 9t-22.5 18t-24 9q-22 0 -34 -23q-5 -11 -11 -11q-10 0 -10 9q0 14 16.5 29.5t41.5 15.5q20 0 32 -9t22 -18t24 -9q23 0 34 23q3 6 5 8.5t7 2.5q9 0 9 -9q-1 -13 -16.5 -29t-41.5 -16z" />
    </font>
</defs>
</svg>
